<?xml version="1.0" encoding="utf-8"?>
<svg version="1.1" id="Layer_1" xmlns="http://www.w3.org/2000/svg" xmlns:xlink="http://www.w3.org/1999/xlink" x="0px" y="0px"
	 viewBox="0 0 29 29" style="enable-background:new 0 0 29 29;" xml:space="preserve">
<style type="text/css">
	.st0{opacity:0.15;fill:#FFFFFF;stroke:#000000;}
	.st1{fill:#FFFFFF;}
</style>
<path class="st0" d="M24.1,25.5h-5.3c-0.8,0-1.4-0.6-1.4-1.4s0.6-1.4,1.4-1.4h3.8v-3.8c0-0.8,0.6-1.4,1.4-1.4s1.4,0.6,1.4,1.4v5.3
	C25.5,24.9,24.9,25.5,24.1,25.5z M24.1,11.6c-0.8,0-1.4-0.6-1.4-1.4c0,0,0,0,0,0V6.4h-3.8c-0.8,0-1.4-0.6-1.4-1.4
	c0-0.8,0.6-1.4,1.4-1.4h5.3c0.8,0,1.4,0.6,1.4,1.4v5.3C25.5,11,24.9,11.6,24.1,11.6z M10.2,25.5H4.9c-0.8,0-1.4-0.6-1.4-1.4
	c0,0,0,0,0,0v-5.3c0-0.8,0.6-1.4,1.4-1.4s1.4,0.6,1.4,1.4v3.8h3.8c0.8,0,1.4,0.7,1.4,1.5C11.5,24.9,10.9,25.5,10.2,25.5z M10.2,6.4
	H6.4v3.8c0,0.8-0.6,1.4-1.4,1.4c-0.8,0-1.4-0.6-1.4-1.4V4.9c0-0.8,0.6-1.4,1.4-1.4h5.3c0.8,0,1.4,0.6,1.4,1.4
	C11.6,5.7,11,6.4,10.2,6.4z"/>
<path class="st1" d="M24.1,25.5h-5.3c-0.8,0-1.4-0.6-1.4-1.4s0.6-1.4,1.4-1.4h3.8v-3.8c0-0.8,0.6-1.4,1.4-1.4s1.4,0.6,1.4,1.4v5.3
	C25.5,24.9,24.9,25.5,24.1,25.5z M24.1,11.6c-0.8,0-1.4-0.6-1.4-1.4c0,0,0,0,0,0V6.4h-3.8c-0.8,0-1.4-0.6-1.4-1.4
	c0-0.8,0.6-1.4,1.4-1.4h5.3c0.8,0,1.4,0.6,1.4,1.4v5.3C25.5,11,24.9,11.6,24.1,11.6z M10.2,25.5H4.9c-0.8,0-1.4-0.6-1.4-1.4
	c0,0,0,0,0,0v-5.3c0-0.8,0.6-1.4,1.4-1.4s1.4,0.6,1.4,1.4v3.8h3.8c0.8,0,1.4,0.7,1.4,1.5C11.5,24.9,10.9,25.5,10.2,25.5z M10.2,6.4
	H6.4v3.8c0,0.8-0.6,1.4-1.4,1.4c-0.8,0-1.4-0.6-1.4-1.4V4.9c0-0.8,0.6-1.4,1.4-1.4h5.3c0.8,0,1.4,0.6,1.4,1.4
	C11.6,5.7,11,6.4,10.2,6.4z"/>
</svg>
