<?xml version="1.0" encoding="utf-8"?>
<svg version="1.1" id="Layer_1" xmlns="http://www.w3.org/2000/svg" xmlns:xlink="http://www.w3.org/1999/xlink" x="0px" y="0px"
	 viewBox="0 0 29 29" style="enable-background:new 0 0 29 29;" xml:space="preserve">
<style type="text/css">
	.st0{opacity:0.15;fill:#FFFFFF;stroke:#000000;}
	.st1{fill:#FFFFFF;}
</style>
<path class="st0" d="M24.1,11.5h-5.2c-0.8,0-1.4-0.6-1.4-1.4V4.9c0-0.8,0.6-1.4,1.4-1.4s1.4,0.6,1.4,1.4v3.8h3.8
	c0.8,0,1.4,0.6,1.5,1.4C25.6,10.8,24.9,11.5,24.1,11.5C24.1,11.5,24.1,11.5,24.1,11.5z M10.1,25.5c-0.8,0-1.4-0.6-1.4-1.4v-3.8H4.9
	c-0.8,0-1.4-0.6-1.5-1.4s0.6-1.4,1.4-1.5c0,0,0.1,0,0.1,0h5.2c0.8,0,1.4,0.6,1.4,1.4v5.2C11.5,24.9,10.9,25.5,10.1,25.5z M10.1,11.5
	H4.9c-0.8,0-1.4-0.7-1.4-1.5c0-0.8,0.6-1.4,1.4-1.4h3.8V4.9c0-0.8,0.6-1.4,1.4-1.4s1.4,0.6,1.4,1.4v5.2
	C11.5,10.9,10.9,11.5,10.1,11.5z M18.9,17.5h5.2c0.8,0,1.4,0.7,1.4,1.5c0,0.8-0.6,1.4-1.4,1.4h-3.8v3.8c0,0.8-0.7,1.4-1.5,1.4
	c-0.8,0-1.4-0.6-1.4-1.4v-5.2C17.5,18.1,18.1,17.5,18.9,17.5z"/>
<path class="st1" d="M24.1,11.5h-5.2c-0.8,0-1.4-0.6-1.4-1.4V4.9c0-0.8,0.6-1.4,1.4-1.4s1.4,0.6,1.4,1.4v3.8h3.8
	c0.8,0,1.4,0.6,1.5,1.4C25.6,10.8,24.9,11.5,24.1,11.5C24.1,11.5,24.1,11.5,24.1,11.5z M10.1,25.5c-0.8,0-1.4-0.6-1.4-1.4v-3.8H4.9
	c-0.8,0-1.4-0.6-1.5-1.4s0.6-1.4,1.4-1.5c0,0,0.1,0,0.1,0h5.2c0.8,0,1.4,0.6,1.4,1.4v5.2C11.5,24.9,10.9,25.5,10.1,25.5z M10.1,11.5
	H4.9c-0.8,0-1.4-0.7-1.4-1.5c0-0.8,0.6-1.4,1.4-1.4h3.8V4.9c0-0.8,0.6-1.4,1.4-1.4s1.4,0.6,1.4,1.4v5.2
	C11.5,10.9,10.9,11.5,10.1,11.5z M18.9,17.5h5.2c0.8,0,1.4,0.7,1.4,1.5c0,0.8-0.6,1.4-1.4,1.4h-3.8v3.8c0,0.8-0.7,1.4-1.5,1.4
	c-0.8,0-1.4-0.6-1.4-1.4v-5.2C17.5,18.1,18.1,17.5,18.9,17.5z"/>
</svg>
