<?xml version="1.0" encoding="utf-8"?>
<svg version="1.1" id="Layer_1" xmlns="http://www.w3.org/2000/svg" xmlns:xlink="http://www.w3.org/1999/xlink" x="0px" y="0px"
	 viewBox="0 0 28 33" style="enable-background:new 0 0 28 33;" xml:space="preserve">
<style type="text/css">
	.st0{opacity:0.15;fill:#FFFFFF;stroke:#000000;}
	.st1{fill:#FFFFFF;}
</style>
<path class="st0" d="M22.9,29.5h-5.1c-0.6,0-1-0.4-1-1v-24c0-0.6,0.4-1,1-1h5.1c0.6,0,1,0.4,1,1v24C23.9,29.1,23.5,29.5,22.9,29.5z"
	/>
<path class="st0" d="M9.6,29.5H4.5c-0.6,0-1-0.4-1-1v-24c0-0.6,0.4-1,1-1h5.1c0.6,0,1,0.4,1,1v24C10.6,29.1,10.2,29.5,9.6,29.5z"/>
<path class="st1" d="M22.9,29.5h-5.1c-0.6,0-1-0.4-1-1v-24c0-0.6,0.4-1,1-1h5.1c0.6,0,1,0.4,1,1v24C23.9,29.1,23.5,29.5,22.9,29.5z"
	/>
<path class="st1" d="M9.6,29.5H4.5c-0.6,0-1-0.4-1-1v-24c0-0.6,0.4-1,1-1h5.1c0.6,0,1,0.4,1,1v24C10.6,29.1,10.2,29.5,9.6,29.5z"/>
</svg>
