<?xml version="1.0" encoding="utf-8"?>
<svg version="1.1" id="Layer_1" xmlns="http://www.w3.org/2000/svg" xmlns:xlink="http://www.w3.org/1999/xlink" x="0px" y="0px"
	 viewBox="0 0 28 33" style="enable-background:new 0 0 28 33;" xml:space="preserve">
<style type="text/css">
	.st0{opacity:0.15;fill:#FFFFFF;stroke:#000000;}
	.st1{fill:#FFFFFF;}
</style>
<path class="st0" d="M23.6,14.7L6.2,3.8c-0.6-0.4-1.3-0.4-1.8,0C3.8,4.2,3.5,4.9,3.5,5.6v21.8c0,0.7,0.3,1.4,0.8,1.8
	c0.3,0.2,0.6,0.3,1,0.3c0.3,0,0.6-0.2,0.8-0.3l17.4-10.9c0.6-0.4,1-1.1,1-1.8S24.2,15.1,23.6,14.7z"/>
<path class="st1" d="M23.6,14.7L6.2,3.8c-0.6-0.4-1.3-0.4-1.8,0C3.8,4.2,3.5,4.9,3.5,5.6v21.8c0,0.7,0.3,1.4,0.8,1.8
	c0.3,0.2,0.6,0.3,1,0.3c0.3,0,0.6-0.2,0.8-0.3l17.4-10.9c0.6-0.4,1-1.1,1-1.8S24.2,15.1,23.6,14.7z"/>
</svg>
