<svg xmlns="http://www.w3.org/2000/svg" width="23" height="23" viewBox="0 0 23 23">
    <g fill="#FFF">
        <path stroke="#000" d="M20.9 13.7c-1.4-1.1-1.4-3.1-.1-4.2 1.3-1.1 1.3-1.3.6-2.8-.2-.4-.5-.9-.7-1.3-.9-1.3-1.3-1.4-2.7-.9-1.6.6-3.3-.3-3.7-1.9-.4-1.8-.6-1.9-2.4-2-.5 0-1 0-1.5.1-1.1 0-1.7.5-1.8 1.7C8.4 4 6.8 5 5.1 4.5s-2-.4-2.9 1.1c-.3.4-.5.8-.7 1.2C.9 8 1 8.4 2 9.3c1.4 1.2 1.5 3.1.1 4.3-1.2 1-1.3 1.3-.5 2.7.3.5.6 1.1.9 1.6.6.9 1.2 1.1 2.3.7 1.7-.7 3.5.2 3.8 2 .3 1.5.5 1.7 2 1.8.7.1 1.4 0 2 0 1-.1 1.5-.6 1.6-1.6.2-1.9 2-2.9 3.8-2.2 1.1.4 1.6.1 2.1-.4.5-.6.9-1.3 1.2-2 .8-1.3.7-1.6-.4-2.5zm-9.4 3.2c-3 0-5.4-2.4-5.4-5.4 0-3 2.4-5.4 5.4-5.4 3 0 5.4 2.4 5.4 5.4 0 3-2.4 5.4-5.4 5.4z" opacity=".15"/>
        <path d="M20.9 13.7c-1.4-1.1-1.4-3.1-.1-4.2 1.3-1.1 1.3-1.3.6-2.8-.2-.4-.5-.9-.7-1.3-.9-1.3-1.3-1.4-2.7-.9-1.6.6-3.3-.3-3.7-1.9-.4-1.8-.6-1.9-2.4-2-.5 0-1 0-1.5.1-1.1 0-1.7.5-1.8 1.7C8.4 4 6.8 5 5.1 4.5s-2-.4-2.9 1.1c-.3.4-.5.8-.7 1.2C.9 8 1 8.4 2 9.3c1.4 1.2 1.5 3.1.1 4.3-1.2 1-1.3 1.3-.5 2.7.3.5.6 1.1.9 1.6.6.9 1.2 1.1 2.3.7 1.7-.7 3.5.2 3.8 2 .3 1.5.5 1.7 2 1.8.7.1 1.4 0 2 0 1-.1 1.5-.6 1.6-1.6.2-1.9 2-2.9 3.8-2.2 1.1.4 1.6.1 2.1-.4.5-.6.9-1.3 1.2-2 .8-1.3.7-1.6-.4-2.5zm-9.4 3.2c-3 0-5.4-2.4-5.4-5.4 0-3 2.4-5.4 5.4-5.4 3 0 5.4 2.4 5.4 5.4 0 3-2.4 5.4-5.4 5.4z"/>
    </g>
</svg>
