<?xml version="1.0" encoding="utf-8"?>
<svg version="1.1" id="Layer_1" xmlns="http://www.w3.org/2000/svg" xmlns:xlink="http://www.w3.org/1999/xlink" x="0px" y="0px"
	 viewBox="0 0 28 25" style="enable-background:new 0 0 28 25;" xml:space="preserve">
<style type="text/css">
	.st0{opacity:0.15;fill:#FFFFFF;stroke:#000000;}
	.st1{fill:#FFFFFF;}
</style>
<path class="st0" d="M13.3,3.8L8.9,7.3H5c-0.8,0-1.3,0.5-1.3,1.3v7.8c0,0.8,0.5,1.3,1.3,1.3h3.9l4.4,3.5c0.9,0.7,2.1,0.1,2.1-1V4.8
	C15.4,3.7,14.1,3.1,13.3,3.8z M22,12.5c0,1.4-0.5,2.7-1.3,3.9c-0.4,0.5-0.4,1.3,0.1,1.7c0.5,0.5,1.4,0.5,1.9,0c0,0,0.1-0.1,0.1-0.1
	c1.2-1.6,1.8-3.5,1.8-5.5c0-2.1-0.7-3.9-1.8-5.5c-0.4-0.6-1.3-0.7-1.9-0.2c0,0-0.1,0.1-0.1,0.1c-0.5,0.5-0.5,1.2-0.1,1.7
	C21.4,9.8,22,11.1,22,12.5z M18,9.6l-0.1,0.1c-0.8,0.8-1.2,1.7-1.2,2.7c0,1,0.4,2,1.2,2.7l0.1,0.1c0.8-0.7,1.3-1.7,1.3-2.9
	C19.3,11.3,18.8,10.3,18,9.6z"/>
<path class="st1" d="M13.3,3.8L8.9,7.3H5c-0.8,0-1.3,0.5-1.3,1.3v7.8c0,0.8,0.5,1.3,1.3,1.3h3.9l4.4,3.5c0.9,0.7,2.1,0.1,2.1-1V4.8
	C15.4,3.7,14.1,3.1,13.3,3.8z M22,12.5c0,1.4-0.5,2.7-1.3,3.9c-0.4,0.5-0.4,1.3,0.1,1.7c0.5,0.5,1.4,0.5,1.9,0c0,0,0.1-0.1,0.1-0.1
	c1.2-1.6,1.8-3.5,1.8-5.5c0-2.1-0.7-3.9-1.8-5.5c-0.4-0.6-1.3-0.7-1.9-0.2c0,0-0.1,0.1-0.1,0.1c-0.5,0.5-0.5,1.2-0.1,1.7
	C21.4,9.8,22,11.1,22,12.5z M18,9.6l-0.1,0.1c-0.8,0.8-1.2,1.7-1.2,2.7c0,1,0.4,2,1.2,2.7l0.1,0.1c0.8-0.7,1.3-1.7,1.3-2.9
	C19.3,11.3,18.8,10.3,18,9.6z"/>
</svg>
