<?xml version="1.0" encoding="utf-8"?>
<svg version="1.1" id="Layer_1" xmlns="http://www.w3.org/2000/svg" xmlns:xlink="http://www.w3.org/1999/xlink" x="0px" y="0px"
	 viewBox="0 0 33 27" style="enable-background:new 0 0 33 27;" xml:space="preserve">
<style type="text/css">
	.st0{opacity:0.15;fill:#FFFFFF;stroke:#000000;}
	.st1{fill:#FFFFFF;}
</style>
<path class="st0" d="M13.3,4.8L8.9,8.3H5c-0.8,0-1.3,0.5-1.3,1.3v7.8c0,0.8,0.5,1.3,1.3,1.3h3.9l4.4,3.5c0.9,0.7,2.1,0.1,2.1-1V5.8
	C15.4,4.7,14.1,4.1,13.3,4.8z M24.4,6c-0.4-0.5-0.4-1.3,0.1-1.7c0.5-0.5,1.4-0.5,1.9,0c0,0,0.1,0.1,0.1,0.1c2,2.3,3.3,5.6,3.3,9.1
	c0,3.5-1.3,6.8-3.4,9.2c-0.4,0.6-1.3,0.7-1.9,0.2c0,0-0.1-0.1-0.1-0.1c-0.5-0.5-0.5-1.2-0.1-1.7c1.7-2.1,2.7-4.7,2.7-7.6
	C27.1,10.8,26.1,8,24.4,6z M22,13.5c0,1.4-0.5,2.7-1.3,3.9c-0.4,0.5-0.4,1.3,0.1,1.7c0.5,0.5,1.4,0.5,1.9,0c0,0,0.1-0.1,0.1-0.1
	c1.2-1.6,1.8-3.5,1.8-5.5c0-2.1-0.7-3.9-1.8-5.5c-0.4-0.6-1.3-0.7-1.9-0.2c0,0-0.1,0.1-0.1,0.1c-0.5,0.5-0.5,1.2-0.1,1.7
	C21.4,10.8,22,12.1,22,13.5z M18,10.6l-0.1,0.1c-0.8,0.8-1.2,1.7-1.2,2.7c0,1,0.4,2,1.2,2.7l0.1,0.1c0.8-0.7,1.3-1.7,1.3-2.9
	C19.3,12.3,18.8,11.3,18,10.6z"/>
<path class="st1" d="M13.3,4.8L8.9,8.3H5c-0.8,0-1.3,0.5-1.3,1.3v7.8c0,0.8,0.5,1.3,1.3,1.3h3.9l4.4,3.5c0.9,0.7,2.1,0.1,2.1-1V5.8
	C15.4,4.7,14.1,4.1,13.3,4.8z M24.4,6c-0.4-0.5-0.4-1.3,0.1-1.7c0.5-0.5,1.4-0.5,1.9,0c0,0,0.1,0.1,0.1,0.1c2,2.3,3.3,5.6,3.3,9.1
	c0,3.5-1.3,6.8-3.4,9.2c-0.4,0.6-1.3,0.7-1.9,0.2c0,0-0.1-0.1-0.1-0.1c-0.5-0.5-0.5-1.2-0.1-1.7c1.7-2.1,2.7-4.7,2.7-7.6
	C27.1,10.8,26.1,8,24.4,6z M22,13.5c0,1.4-0.5,2.7-1.3,3.9c-0.4,0.5-0.4,1.3,0.1,1.7c0.5,0.5,1.4,0.5,1.9,0c0,0,0.1-0.1,0.1-0.1
	c1.2-1.6,1.8-3.5,1.8-5.5c0-2.1-0.7-3.9-1.8-5.5c-0.4-0.6-1.3-0.7-1.9-0.2c0,0-0.1,0.1-0.1,0.1c-0.5,0.5-0.5,1.2-0.1,1.7
	C21.4,10.8,22,12.1,22,13.5z M18,10.6l-0.1,0.1c-0.8,0.8-1.2,1.7-1.2,2.7c0,1,0.4,2,1.2,2.7l0.1,0.1c0.8-0.7,1.3-1.7,1.3-2.9
	C19.3,12.3,18.8,11.3,18,10.6z"/>
</svg>
