<?xml version="1.0" encoding="utf-8"?>
<svg version="1.1" id="Layer_1" xmlns="http://www.w3.org/2000/svg" xmlns:xlink="http://www.w3.org/1999/xlink" x="0px" y="0px"
	 viewBox="0 0 24 26" style="enable-background:new 0 0 24 26;" xml:space="preserve">
<style type="text/css">
	.st0{opacity:0.15;fill:#FFFFFF;stroke:#000000;}
	.st1{fill:#FFFFFF;}
</style>
<path class="st0" d="M13.8,4.3L9.4,7.8H5.5c-0.8,0-1.3,0.5-1.3,1.3v7.8c0,0.8,0.5,1.3,1.3,1.3h3.9l4.4,3.5c0.9,0.7,2.1,0.1,2.1-1
	V5.3C15.9,4.2,14.6,3.6,13.8,4.3z M18.5,10.1l-0.1,0.1c-0.8,0.8-1.2,1.7-1.2,2.7c0,1,0.4,2,1.2,2.7l0.1,0.1c0.8-0.7,1.3-1.7,1.3-2.9
	C19.8,11.8,19.3,10.8,18.5,10.1z"/>
<path class="st1" d="M13.8,4.3L9.4,7.8H5.5c-0.8,0-1.3,0.5-1.3,1.3v7.8c0,0.8,0.5,1.3,1.3,1.3h3.9l4.4,3.5c0.9,0.7,2.1,0.1,2.1-1
	V5.3C15.9,4.2,14.6,3.6,13.8,4.3z M18.5,10.1l-0.1,0.1c-0.8,0.8-1.2,1.7-1.2,2.7c0,1,0.4,2,1.2,2.7l0.1,0.1c0.8-0.7,1.3-1.7,1.3-2.9
	C19.8,11.8,19.3,10.8,18.5,10.1z"/>
</svg>
