<?xml version="1.0" encoding="utf-8"?>
<svg version="1.1" id="Layer_1" xmlns="http://www.w3.org/2000/svg" xmlns:xlink="http://www.w3.org/1999/xlink" x="0px" y="0px"
	 viewBox="0 0 28 28" style="enable-background:new 0 0 28 28;" xml:space="preserve">
<style type="text/css">
	.st0{opacity:0.15;fill:#FFFFFF;stroke:#000000;}
	.st1{fill:#FFFFFF;}
</style>
<path class="st0" d="M11.7,7.7l3.7-2.9c0.8-0.7,2.1-0.1,2.1,1v7.6C17.4,13.4,11.7,7.7,11.7,7.7z M17.4,21.4c-0.1,1-1.2,1.4-2.1,0.8
	l-4.4-3.5H7c-0.8,0-1.3-0.5-1.3-1.3V9.7C5.7,9.7,17.4,21.4,17.4,21.4z M5,3.6l18.9,18.9c0.4,0.4,0.4,1.1,0,1.5
	c-0.4,0.4-1.1,0.4-1.5,0L3.6,5c-0.4-0.4-0.4-1.1,0-1.5C3.9,3.1,4.6,3.1,5,3.6z"/>
<path class="st1" d="M11.7,7.7l3.7-2.9c0.8-0.7,2.1-0.1,2.1,1v7.6C17.4,13.4,11.7,7.7,11.7,7.7z M17.4,21.4c-0.1,1-1.2,1.4-2.1,0.8
	l-4.4-3.5H7c-0.8,0-1.3-0.5-1.3-1.3V9.7C5.7,9.7,17.4,21.4,17.4,21.4z M5,3.6l18.9,18.9c0.4,0.4,0.4,1.1,0,1.5
	c-0.4,0.4-1.1,0.4-1.5,0L3.6,5c-0.4-0.4-0.4-1.1,0-1.5C3.9,3.1,4.6,3.1,5,3.6z"/>
</svg>
