<svg xmlns="http://www.w3.org/2000/svg" width="25" height="19" viewBox="0 0 25 19">
    <g fill="#FFF" fill-rule="evenodd">
        <path fill-rule="nonzero"
              d="M3 2a1 1 0 0 0-1 1v13a1 1 0 0 0 1 1h19a1 1 0 0 0 1-1V3a1 1 0 0 0-1-1H3zm0-2h19a3 3 0 0 1 3 3v13a3 3 0 0 1-3 3H3a3 3 0 0 1-3-3V3a3 3 0 0 1 3-3z"/>
        <path d="M2 16h22v1H2zM2 2h21.817v1H2z"/>
        <path fill-rule="nonzero"
              d="M10.467 7.526a.75.75 0 1 1-.934-1.174l2.44-1.94a.75.75 0 0 1 .933 0l2.439 1.94a.75.75 0 1 1-.934 1.174L12.44 5.958l-1.972 1.568z"/>
        <path fill-rule="nonzero" d="M11.689 5a.75.75 0 1 1 1.5 0v8.939a.75.75 0 1 1-1.5 0V5z"/>
        <path fill-rule="nonzero"
              d="M10.467 11.413a.75.75 0 1 0-.934 1.174l2.44 1.939a.75.75 0 0 0 .933 0l2.439-1.939a.75.75 0 1 0-.934-1.174L12.44 12.98l-1.972-1.568z"/>
    </g>
</svg>
