<?xml version="1.0" encoding="UTF-8"?>
<svg width="19px" height="27px" viewBox="0 0 19 27" version="1.1" xmlns="http://www.w3.org/2000/svg" xmlns:xlink="http://www.w3.org/1999/xlink">
    <!-- Generator: Sketch 52.6 (67491) - http://www.bohemiancoding.com/sketch -->
    <title>click</title>
    <desc>Created with Sketch.</desc>
    <defs>
        <path d="M8,0 L9.84074685,0 L11,0 C15.418278,-8.11624501e-16 19,3.581722 19,8 L19,17.5 C19,22.7467051 14.7467051,27 9.5,27 L9.5,27 C4.25329488,27 6.42536064e-16,22.7467051 0,17.5 L0,11.10383 L0,8 C-5.41083001e-16,3.581722 3.581722,8.11624501e-16 8,0 Z" id="path-1"></path>
    </defs>
    <g id="New-Menu" stroke="none" stroke-width="1" fill="none" fill-rule="evenodd">
        <g id="Player-Desktop-Hot-Keys-Copy" transform="translate(-31.000000, -319.000000)">
            <g id="Group-7" transform="translate(31.000000, 39.000000)">
                <g id="click" transform="translate(0.000000, 280.000000)">
                    <g id="Rectangle-6">
                        <mask id="mask-2" fill="white">
                            <use xlink:href="#path-1"></use>
                        </mask>
                        <g id="Mask" opacity="0.503459821" fill-rule="nonzero"></g>
                        <rect fill="#FFFFFF" fill-rule="nonzero" mask="url(#mask-2)" x="-1" y="-3" width="10" height="14"></rect>
                    </g>
                    <path d="M8,1 C4.13400675,1 1,4.13400675 1,8 L1,17.5 C1,22.1944204 4.80557963,26 9.5,26 C14.1944204,26 18,22.1944204 18,17.5 L18,8 C18,4.13400675 14.8659932,1 11,1 L8,1 Z M8,0 L11,0 C15.418278,-8.11624501e-16 19,3.581722 19,8 L19,17.5 C19,22.7467051 14.7467051,27 9.5,27 C4.25329488,27 6.42536064e-16,22.7467051 0,17.5 L0,8 C-5.41083001e-16,3.581722 3.581722,8.11624501e-16 8,0 Z" id="Rectangle-4" fill="#FFFFFF" fill-rule="nonzero" opacity="0.5"></path>
                    <path d="M7.09960938,19.1103516 L7.07519531,19.1103516 L5.9375,21 L4.79492188,21 L6.48925781,18.4365234 L4.81933594,15.8632812 L6.00097656,15.8632812 L7.12402344,17.7236328 L7.14355469,17.7236328 L8.25195312,15.8632812 L9.4140625,15.8632812 L7.72949219,18.4023438 L9.39453125,21 L8.23242188,21 L7.09960938,19.1103516 Z M10.0439453,16.0195312 C10.0439453,14.75 11.0644531,13.8222656 12.4658203,13.8222656 C13.8085938,13.8222656 14.8095703,14.6767578 14.8095703,15.7949219 C14.8095703,16.6152344 14.3701172,17.2255859 13.3398438,18.2802734 L11.5771484,20.0527344 L11.5771484,20.0771484 L14.921875,20.0771484 L14.921875,21 L10.1025391,21 L10.1025391,20.2578125 L12.6464844,17.6650391 C13.5058594,16.7714844 13.7304688,16.4003906 13.7304688,15.8486328 C13.7304688,15.2236328 13.1640625,14.7255859 12.4316406,14.7255859 C11.6601562,14.7255859 11.0791016,15.2822266 11.0791016,16.0146484 L11.0791016,16.0292969 L10.0439453,16.0292969 L10.0439453,16.0195312 Z" id="x2" fill="#FFFFFF"></path>
                </g>
            </g>
        </g>
    </g>
</svg>
