<?xml version="1.0" encoding="UTF-8"?>
<svg width="36px" height="34px" viewBox="0 0 36 34" version="1.1" xmlns="http://www.w3.org/2000/svg" xmlns:xlink="http://www.w3.org/1999/xlink">
    <!-- Generator: Sketch 52.6 (67491) - http://www.bohemiancoding.com/sketch -->
    <title>esc</title>
    <desc>Created with Sketch.</desc>
    <g id="New-Menu" stroke="none" stroke-width="1" fill="none" fill-rule="evenodd">
        <g id="Player-Desktop-Hot-Keys-Copy" transform="translate(-201.000000, -316.000000)">
            <g id="Group-7" transform="translate(31.000000, 39.000000)">
                <g id="Group-6" transform="translate(170.000000, 277.000000)">
                    <g id="Group-2">
                        <g id="esc">
                            <path d="M5,0.5 C2.51471863,0.5 0.5,2.51471863 0.5,5 L0.5,29 C0.5,31.4852814 2.51471863,33.5 5,33.5 L31,33.5 C33.4852814,33.5 35.5,31.4852814 35.5,29 L35.5,5 C35.5,2.51471863 33.4852814,0.5 31,0.5 L5,0.5 Z" id="Rectangle-7-Copy" stroke="#FFFFFF" opacity="0.503459821" fill-rule="nonzero"></path>
                            <path d="M13.0537109,20.7685547 L13.0537109,22 L7.23925781,22 L7.23925781,12.840332 L13.0537109,12.840332 L13.0537109,14.0654297 L8.66113281,14.0654297 L8.66113281,16.7441406 L12.8188477,16.7441406 L12.8188477,17.9248047 L8.66113281,17.9248047 L8.66113281,20.7685547 L13.0537109,20.7685547 Z M14.1074219,19.4482422 L15.5102539,19.4482422 C15.6118164,20.355957 16.4941406,20.9526367 17.7001953,20.9526367 C18.8554688,20.9526367 19.6870117,20.355957 19.6870117,19.5371094 C19.6870117,18.8261719 19.1855469,18.4008789 17.9985352,18.1088867 L16.8115234,17.8232422 C15.1293945,17.4169922 14.3486328,16.6298828 14.3486328,15.3540039 C14.3486328,13.7734375 15.7260742,12.6879883 17.6811523,12.6879883 C19.6171875,12.6879883 20.9438477,13.7734375 20.9882812,15.3540039 L19.6044922,15.3540039 C19.5219727,14.4399414 18.7666016,13.8876953 17.6621094,13.8876953 C16.5576172,13.8876953 15.8022461,14.4462891 15.8022461,15.2587891 C15.8022461,15.90625 16.284668,16.2871094 17.465332,16.5791016 L18.4746094,16.8266602 C20.3535156,17.2709961 21.1342773,18.0263672 21.1342773,19.3657227 C21.1342773,21.0795898 19.7695312,22.1523438 17.5986328,22.1523438 C15.5673828,22.1523438 14.1962891,21.1049805 14.1074219,19.4482422 Z M26.2758789,22.1523438 C23.7050781,22.1523438 22.0800781,20.3369141 22.0800781,17.4169922 C22.0800781,14.5161133 23.7177734,12.6879883 26.2758789,12.6879883 C28.3515625,12.6879883 29.9194336,13.9638672 30.1606445,15.8745117 L28.7514648,15.8745117 C28.4975586,14.7001953 27.5200195,13.9321289 26.2758789,13.9321289 C24.612793,13.9321289 23.5336914,15.296875 23.5336914,17.4169922 C23.5336914,19.5561523 24.6000977,20.9082031 26.2822266,20.9082031 C27.5581055,20.9082031 28.4658203,20.2543945 28.7514648,19.1499023 L30.1669922,19.1499023 C29.8178711,21.0415039 28.3833008,22.1523438 26.2758789,22.1523438 Z" id="ESC" fill="#FFFFFF"></path>
                        </g>
                    </g>
                </g>
            </g>
        </g>
    </g>
</svg>
