<svg width="24" height="24" viewBox="0 0 24 24" xmlns="http://www.w3.org/2000/svg">
    <path d="M20 14a1 1 0 0 1 .997.925L21 15v5a1 1 0 0 1-.925.997L20 21h-5a1 1 0 0 1-.075-1.997L15 19h4v-4a1 1 0 0 1 1-1zM4 14a1 1 0 0 1 .997.925L5 15v4h4a1 1 0 0 1 .075 1.997L9 21H4a1 1 0 0 1-.997-.925L3 20v-5a1 1 0 0 1 1-1zM9 3a1 1 0 0 1 .075 1.997L9 5H5v4a1 1 0 0 1-1.997.075L3 9V4a1 1 0 0 1 .925-.997L4 3h5zm11 0a1 1 0 0 1 .997.925L21 4v5a1 1 0 0 1-1.997.075L19 9V5h-4a1 1 0 0 1-.075-1.997L15 3h5z" fill="#FFF" fill-rule="nonzero"/>
</svg>
