<svg width="24" height="24" viewBox="0 0 24 24" xmlns="http://www.w3.org/2000/svg">
    <path d="M13.405 1a2 2 0 0 1 1.944 1.53l.021.1.075.4.077.03a9.596 9.596 0 0 1 2.256 1.264l.206.16.059.048.387-.135a2 2 0 0 1 2.246.661l.06.083.09.142 1.406 2.435a2 2 0 0 1-.351 2.447l-.08.071-.304.261.041.273c.023.18.041.362.054.544l.016.274.009.412c0 .332-.017.663-.051.99l-.029.245-.041.269.303.26a2 2 0 0 1 .551 2.271l-.043.098-.078.149-1.405 2.435a2 2 0 0 1-2.299.918l-.098-.032-.385-.136-.058.05a9.604 9.604 0 0 1-2.221 1.325l-.24.098-.078.029-.075.4a2 2 0 0 1-1.708 1.614l-.098.01-.16.007h-2.809a2 2 0 0 1-1.944-1.53l-.021-.1-.076-.401-.076-.029a9.596 9.596 0 0 1-2.256-1.264l-.206-.16-.06-.049-.386.136a2 2 0 0 1-2.246-.661l-.06-.083-.09-.142-1.406-2.435a2 2 0 0 1 .351-2.447l.08-.071.303-.262-.04-.272a9.643 9.643 0 0 1-.054-.544l-.016-.274L2.383 12c0-.31.015-.619.045-.925l.034-.305.04-.273-.304-.26a2 2 0 0 1-.551-2.272l.043-.098.078-.15 1.406-2.434a2 2 0 0 1 2.298-.918l.098.032.386.135.06-.049a9.604 9.604 0 0 1 2.221-1.325l.24-.098.077-.03.076-.4a2 2 0 0 1 1.708-1.613l.098-.01.16-.007h2.809zm0 2h-2.81l-.298 1.584-.3.075a7.608 7.608 0 0 0-3.423 2.009l-.145.151-1.523-.536L3.5 8.718l1.218 1.044-.087.305a7.64 7.64 0 0 0 .019 3.934l.068.237L3.5 15.282l1.406 2.435 1.523-.536.208.215a7.605 7.605 0 0 0 3.45 1.969l.21.051.298 1.584h2.81l.298-1.584.3-.075a7.608 7.608 0 0 0 3.423-2.009l.145-.151 1.521.536 1.405-2.435-1.218-1.044.088-.305a7.64 7.64 0 0 0-.016-3.934l-.069-.237L20.5 8.718l-1.406-2.435-1.523.536-.208-.215a7.605 7.605 0 0 0-3.45-1.969l-.21-.051L13.405 3zM12 8a4 4 0 1 1 0 8 4 4 0 0 1 0-8zm0 2a2 2 0 1 0 0 4 2 2 0 0 0 0-4z" fill="#FFF" fill-rule="nonzero"/>
</svg>
