<svg width="24" height="24" viewBox="0 0 24 24" xmlns="http://www.w3.org/2000/svg">
    <path d="M19 4a3 3 0 0 1 3 3v10a3 3 0 0 1-3 3H5a3 3 0 0 1-3-3V7a3 3 0 0 1 3-3h14zm0 2H5a1 1 0 0 0-.993.883L4 7v10a1 1 0 0 0 .883.993L5 18h14a1 1 0 0 0 .993-.883L20 17V7a1 1 0 0 0-.883-.993L19 6zm-2 8a1 1 0 0 1 .117 1.993L17 16h-1a1 1 0 0 1-.117-1.993L16 14h1zm-4 0a1 1 0 0 1 .117 1.993L13 16H7a1 1 0 0 1-.117-1.993L7 14h6zm4-3a1 1 0 0 1 .117 1.993L17 13h-6a1 1 0 0 1-.117-1.993L11 11h6zm-9 0a1 1 0 0 1 .117 1.993L8 13H7a1 1 0 0 1-.117-1.993L7 11h1z" fill="#FFF" fill-rule="nonzero"/>
</svg>
