<svg width="24" height="24" viewBox="0 0 24 24" xmlns="http://www.w3.org/2000/svg">
    <path d="M12 3a9 9 0 0 1 9 9 9 9 0 0 1-9 9 9 9 0 0 1-9-9 9 9 0 0 1 9-9zm0 1.5a7.5 7.5 0 1 0 0 15 7.5 7.5 0 0 0 0-15zM12 15a1 1 0 1 1 0 2 1 1 0 0 1 0-2zm0-8c.265 0 .52.123.707.342.156.182.256.418.284.671l.009.154v4.666c0 .31-.105.606-.293.825A.934.934 0 0 1 12 14a.934.934 0 0 1-.707-.342 1.25 1.25 0 0 1-.284-.671L11 12.833V8.167c0-.31.105-.606.293-.825A.934.934 0 0 1 12 7z" fill="#FFF" fill-rule="evenodd"/>
</svg>
