<?xml version="1.0" encoding="UTF-8"?>
<svg width="24px" height="24px" viewBox="0 0 24 24" version="1.1" xmlns="http://www.w3.org/2000/svg" xmlns:xlink="http://www.w3.org/1999/xlink">
    <title>CC51FF59-A62C-4713-9ABE-F44EA4159A51</title>
    <g id="web-player-(актуализация-2021.08:-новая-страница-проекта-и-стиль-кнопок)" stroke="none" stroke-width="1" fill="none" fill-rule="evenodd">
        <g id="web-player-player-skin.-icon-pack" transform="translate(-359.000000, -1129.000000)" fill="#FFFFFF" fill-rule="nonzero">
            <g id="icons/web-player/sound-on-low" transform="translate(359.000000, 1129.000000)">
                <g id="volume-on" transform="translate(3.000000, 4.000000)">
                    <path d="M8.72727273,0.267221798 L4.72727273,3.37811852 L1.18181818,3.37811852 C0.454545455,3.37811852 0,3.82253234 0,4.53359444 L0,11.4664056 C0,12.1774677 0.454545455,12.6218815 1.18181818,12.6218815 L4.72727273,12.6218815 L8.72727273,15.7327782 C9.54545455,16.3549575 10.6363636,15.821661 10.6363636,14.8439506 L10.6363636,1.15604943 C10.6363636,0.178339034 9.45454545,-0.354957547 8.72727273,0.267221798 Z M13,5.42242208 L12.9090909,5.51129595 C12.1818182,6.22232251 11.8181818,7.02226738 11.8181818,7.91109502 C11.8181818,8.79992265 12.1818182,9.68875029 12.9090909,10.3109296 L13,10.3998124 C13.7272727,9.77763305 14.1818182,8.88880541 14.1818182,7.82221225 C14.1818182,6.93338462 13.7272727,6.04460142 13,5.42242208 Z" id="Shape"></path>
                </g>
            </g>
        </g>
    </g>
</svg>