<?xml version="1.0" encoding="UTF-8"?>
<svg width="49px" height="48px" viewBox="0 0 49 48" version="1.1" xmlns="http://www.w3.org/2000/svg" xmlns:xlink="http://www.w3.org/1999/xlink">
    <title>1790A3EA-0104-4C30-8F63-34358B9FFF9B</title>
    <g id="web-player-(актуализация-2021.08:-новая-страница-проекта-и-стиль-кнопок)" stroke="none" stroke-width="1" fill="none" fill-rule="evenodd">
        <g id="web-player-player-skin.-icon-pack" transform="translate(-278.000000, -1705.000000)">
            <g id="icons/48/error/sad-screen" transform="translate(278.731190, 1705.000000)">
                <g id="sad-screen" transform="translate(5.000000, 8.000000)" fill="#8F8F8F" fill-rule="nonzero">
                    <path d="M33,6 C35.7614237,6 38,8.23857625 38,11 L38,26 C38,28.7614237 35.7614237,31 33,31 L5,31 C2.23857625,31 0,28.7614237 0,26 L0,11 C0,8.23857625 2.23857625,6 5,6 L33,6 Z M33,9 L5,9 C3.9456382,9 3.08183488,9.81587779 3.00548574,10.8507377 L3,11 L3,26 C3,27.0543618 3.81587779,27.9181651 4.85073766,27.9945143 L5,28 L33,28 C34.0543618,28 34.9181651,27.1841222 34.9945143,26.1492623 L35,26 L35,11 C35,9.9456382 34.1841222,9.08183488 33.1492623,9.00548574 L33,9 Z" id="Shape"></path>
                    <path d="M29.2856674,0 C30.2324426,0 31,0.671574488 31,1.5 C31,2.28240855 30.3153578,2.92489725 29.441703,2.99387004 L29.2856674,3 L8.71428211,3 C7.76751697,3 7,2.32843258 7,1.5 C7,0.717598128 7.68460619,0.0751034957 8.55824849,0.00613002382 L8.71428211,0 L29.2856674,0 Z M15.8391717,12.2142699 C16.1579929,12.9604166 15.9941542,13.8253858 15.4244089,14.4040001 C14.8554017,14.9818763 13.9926656,15.1582651 13.2413694,14.8505073 C12.4908111,14.5427494 12,13.8121013 12,13.0002701 C11.9956051,11.905774 12.8760534,11.0120216 13.9705252,11.0002132 C14.7823385,10.9884047 15.5203505,11.4681232 15.8391717,12.2142699 Z M11.2739892,23.3514849 C11.345152,23.2801206 18.7033817,15.8939165 27.648541,23.2801206 C28.0541687,23.6219556 28.1182152,24.2249838 27.7908665,24.6431785 C27.6108247,24.8686897 27.338983,25 27.0507738,25 C26.8315925,25 26.6195274,24.9214993 26.4530066,24.7787707 C19.0476739,18.6691379 13.1613838,24.1818068 12.6469632,24.6867724 L12.6189654,24.7145428 C12.4431934,24.8958081 12.2019516,24.9985727 11.9500355,24.9985727 C11.6981193,24.9985727 11.4568775,24.8958081 11.2811055,24.7145428 C10.9089242,24.3377394 10.9060777,23.7318566 11.2739892,23.3514849 Z M24.9705439,11.0002132 C25.7823497,10.9884047 26.5203549,11.4681232 26.8391732,12.2142699 C27.1579914,12.9604166 26.9941543,13.8253858 26.4244142,14.4040001 C25.8554122,14.9818763 24.9926841,15.1582651 24.2413948,14.8505073 C23.4908434,14.5427494 23.00007,13.8121013 23.00007,13.0002701 C22.9956419,12.4733178 23.2015454,11.9670303 23.570548,11.5921119 C23.9402886,11.2164555 24.4436082,11.0039033 24.9705439,11.0002132 Z" id="Combined-Shape"></path>
                </g>
                <rect id="Rectangle" fill-opacity="0" fill="#D8D8D8" opacity="0" x="0" y="0" width="48" height="48"></rect>
            </g>
        </g>
    </g>
</svg>