<svg width="40" height="40" viewBox="0 0 40 40" xmlns="http://www.w3.org/2000/svg">
    <g fill="#FFF" fill-rule="evenodd">
        <path d="M6.564 0h5.872c.892 0 1.215.093 1.54.267.327.174.583.43.757.756.174.326.267.65.267 1.54v34.873c0 .892-.093 1.215-.267 1.54-.174.327-.43.583-.756.757-.326.174-.65.267-1.54.267H6.563c-.892 0-1.215-.093-1.54-.267a1.817 1.817 0 0 1-.757-.756c-.174-.326-.267-.65-.267-1.54V2.563c0-.892.093-1.215.267-1.54.174-.327.43-.583.756-.757C5.35.093 5.673 0 6.563 0zM27.564 0h5.872c.892 0 1.215.093 1.54.267.327.174.583.43.757.756.174.326.267.65.267 1.54v34.873c0 .892-.093 1.215-.267 1.54-.174.327-.43.583-.756.757-.326.174-.65.267-1.54.267h-5.873c-.892 0-1.215-.093-1.54-.267a1.817 1.817 0 0 1-.757-.756c-.174-.326-.267-.65-.267-1.54V2.563c0-.892.093-1.215.267-1.54.174-.327.43-.583.756-.757.326-.174.65-.267 1.54-.267z"/>
    </g>
</svg>
