<?xml version="1.0" encoding="UTF-8"?>
<svg width="24px" height="24px" viewBox="0 0 24 24" version="1.1" xmlns="http://www.w3.org/2000/svg" xmlns:xlink="http://www.w3.org/1999/xlink">
    <title>7FFD0B35-D0F2-43E4-8247-E625F5BC9407</title>
    <defs>
        <path d="M1,2.22044605e-15 C1.19230577,2.22044605e-15 1.38053298,0.0554492272 1.54212687,0.159703352 L12.8950804,7.48418949 C13.8232464,8.0830063 14.0902368,9.32087048 13.4914199,10.2490365 C13.3372864,10.4879435 13.1339874,10.6912425 12.8950804,10.8453761 L1.54212687,18.1698622 C1.07804385,18.4692706 0.459111754,18.3357755 0.159703352,17.8716925 C0.0554492272,17.7100986 4.67639874e-16,17.5218714 0,17.3295656 L0,1 C3.76453835e-16,0.44771525 0.44771525,2.33146835e-15 1,2.22044605e-15 Z M16.5,0.164782791 C17.3284271,0.164782791 18,0.836355666 18,1.66478279 L18,16.6647828 C18,17.4932099 17.3284271,18.1647828 16.5,18.1647828 C15.6715729,18.1647828 15,17.4932099 15,16.6647828 L15,1.66478279 C15,0.836355666 15.6715729,0.164782791 16.5,0.164782791 Z" id="path-1"></path>
    </defs>
    <g id="web-player-(актуализация-2021.08:-новая-страница-проекта-и-стиль-кнопок)" stroke="none" stroke-width="1" fill="none" fill-rule="evenodd">
        <g id="web-player-player-skin.-icon-pack" transform="translate(-223.000000, -933.000000)">
            <g id="icons/24/previous-track" transform="translate(223.000000, 933.000000)">
                <g id="icon-previous-track" transform="translate(3.000000, 2.835217)">
                    <mask id="mask-2" fill="white">
                        <use xlink:href="#path-1"></use>
                    </mask>
                    <use id="Vector-Mask" fill="#FFFFFF" transform="translate(9.000000, 9.164843) scale(-1, 1) translate(-9.000000, -9.164843) " xlink:href="#path-1"></use>
                </g>
            </g>
        </g>
    </g>
</svg>