<?xml version="1.0" encoding="UTF-8"?>
<svg width="49px" height="48px" viewBox="0 0 49 48" version="1.1" xmlns="http://www.w3.org/2000/svg" xmlns:xlink="http://www.w3.org/1999/xlink">
    <title>9EC7677C-C3EB-41A9-99E6-A35EB38558B6</title>
    <g id="web-player-(актуализация-2021.08:-новая-страница-проекта-и-стиль-кнопок)" stroke="none" stroke-width="1" fill="none" fill-rule="evenodd">
        <g id="web-player-player-skin.-icon-pack" transform="translate(-414.000000, -1705.000000)">
            <g id="icons/48/error/wifi-error" transform="translate(414.731190, 1705.000000)">
                <g id="wifi-error" transform="translate(0.500000, 7.000000)">
                    <path d="M23.0002078,22 C23.824211,22 24.5,22.6698543 24.5,23.5089984 C24.5,24.3481425 23.824211,25 23.0002078,25 C22.158942,25 21.5,24.3477111 21.5,23.5089984 C21.5,22.6702857 22.158942,22 23.0002078,22 Z M23,8 C24.1044219,8 25,8.91844007 25,10.0527981 L25,10.18815 C25,10.2391784 24.9973821,10.2896662 24.994773,10.3380005 L24.2954747,20.1094846 C24.2593585,20.6127497 23.8516082,21 23.3606372,21 L22.6398881,21 C22.1483918,21 21.7411668,20.6122179 21.7045253,20.1094846 L21.0057523,10.3380005 C21.0026179,10.286981 21,10.2391784 21,10.18815 L21,10.0527981 C21,8.91844007 21.8950527,8 23,8 Z" id="Clip-2" fill="#8F8F8F"></path>
                    <path d="M23,1.5 C31.1116706,1.5 39.2071522,4.70034821 44.9466829,10.5224364 L44.9466829,10.5224364 L23.0114125,32.4149316 L2.04638646,10.5294351 C7.77187058,4.7153966 14.9038095,1.5 23,1.5 Z" id="Path" stroke="#979797" stroke-width="3"></path>
                </g>
                <rect id="Rectangle" fill-opacity="0" fill="#D8D8D8" opacity="0" x="0" y="0" width="48" height="48"></rect>
            </g>
        </g>
    </g>
</svg>