<svg width="48" height="48" viewBox="0 0 48 48" xmlns="http://www.w3.org/2000/svg">
    <path d="M24.022.133c13.194 0 23.89 10.695 23.89 23.89 0 13.193-10.696 23.889-23.89 23.889S.132 37.216.132 24.022 10.829.132 24.023.132zM16.324 25.68a2.092 2.092 0 0 0 .664 2.898 13.158 13.158 0 0 0 4.159 1.725l-4.004 4.004a2.096 2.096 0 0 0 0 2.964c.42.398.951.62 1.482.62.53 0 1.084-.2 1.482-.62l3.937-3.937 3.938 3.937a2.096 2.096 0 0 0 2.964-2.964l-4.026-4.004a13.374 13.374 0 0 0 4.158-1.725 2.107 2.107 0 0 0 .664-2.898 2.107 2.107 0 0 0-2.898-.663 9.093 9.093 0 0 1-9.622 0 2.092 2.092 0 0 0-2.898.663zm7.698-15.484c-3.937 0-7.145 3.208-7.145 7.145 0 3.937 3.208 7.145 7.145 7.145 3.937 0 7.145-3.208 7.145-7.145 0-3.937-3.208-7.145-7.145-7.145zm0 4.18a2.964 2.964 0 1 1 0 5.93 2.964 2.964 0 0 1 0-5.93z" fill="#FFFFFE" fill-rule="nonzero"/>
</svg>
