<svg width="48" height="48" viewBox="0 0 48 48" xmlns="http://www.w3.org/2000/svg">
    <path d="M44.632 3.368c3.143 3.144 3.353 8.076 3.367 17.535v1.03l.001.53V26.065l-.001 1.031c-.014 9.459-.224 14.391-3.367 17.535-3.144 3.143-8.076 3.353-17.535 3.367h-1.03l-.53.001H21.935l-1.031-.001c-9.459-.014-14.391-.224-17.535-3.367-3.2-3.2-3.36-8.253-3.368-18.046v-5.172C.008 11.62.168 6.568 3.368 3.368 6.568.168 11.621.008 21.414 0h5.172c9.793.008 14.846.168 18.046 3.368zM13 15H9.5c-1.001 0-1.201.47-1.201.99 0 .927 1.187 5.525 5.526 11.606C16.719 31.749 20.795 34 24.504 34c2.225 0 2.5-.5 2.5-1.361V29.5c0-1 .211-1.2.916-1.2.519 0 1.409.26 3.486 2.262C33.78 32.935 34.171 34 35.506 34h3.5c1.001 0 1.501-.5 1.213-1.487-.316-.983-1.45-2.41-2.953-4.101-.816-.964-2.04-2.003-2.41-2.522-.52-.667-.372-.964 0-1.557 0 0 4.264-6.007 4.71-8.046.222-.742 0-1.287-1.06-1.287h-3.5c-.89 0-1.3.47-1.523.99 0 0-1.78 4.338-4.302 7.156-.816.816-1.187 1.076-1.632 1.076-.223 0-.545-.26-.545-1.002v-6.933c0-.89-.258-1.287-1-1.287h-5.501c-.557 0-.891.413-.891.805 0 .843 1.26 1.038 1.39 3.41v5.155c0 1.13-.203 1.335-.648 1.335-1.187 0-4.074-4.358-5.786-9.344C14.232 15.39 13.896 15 13 15z" fill="#FFF" fill-rule="nonzero"/>
</svg>
