<svg width="48" height="48" viewBox="0 0 48 48" xmlns="http://www.w3.org/2000/svg" xmlns:xlink="http://www.w3.org/1999/xlink">
    <defs>
        <path id="3bxu0qja1a" d="M.003.002H48v47.706H.003z"/>
    </defs>
    <g fill="none" fill-rule="evenodd">
        <mask id="qaga60athb" fill="#fff">
            <use xlink:href="#3bxu0qja1a"/>
        </mask>
        <path d="M48 24C48 10.745 37.255 0 24 0S0 10.745 0 24c0 11.98 8.776 21.908 20.25 23.708v-16.77h-6.094V24h6.094v-5.288c0-6.014 3.583-9.337 9.065-9.337 2.626 0 5.372.469 5.372.469v5.906h-3.026c-2.981 0-3.911 1.85-3.911 3.748V24h6.656l-1.064 6.938H27.75v16.77C39.224 45.908 48 35.98 48 24" fill="#FFFFFE" mask="url(#qaga60athb)"/>
    </g>
</svg>
