<?xml version="1.0" encoding="UTF-8"?>
<svg width="146px" height="34px" viewBox="0 0 146 34" version="1.1" xmlns="http://www.w3.org/2000/svg" xmlns:xlink="http://www.w3.org/1999/xlink">
    <!-- Generator: Sketch 52.6 (67491) - http://www.bohemiancoding.com/sketch -->
    <title>space</title>
    <desc>Created with Sketch.</desc>
    <g id="New-Menu" stroke="none" stroke-width="1" fill="none" fill-rule="evenodd">
        <g id="Player-Desktop-Hot-Keys-Copy" transform="translate(-376.000000, -316.000000)">
            <g id="Group-7" transform="translate(31.000000, 39.000000)">
                <g id="Group-6" transform="translate(170.000000, 277.000000)">
                    <g id="Group-2-Copy" transform="translate(175.000000, 0.000000)">
                        <g id="space">
                            <rect id="Rectangle-7-Copy" stroke="#FFFFFF" stroke-width="0.9" opacity="0.503459821" fill-rule="nonzero" x="0.45" y="0.45" width="145.1" height="33.1" rx="4.5"></rect>
                            <path d="M56.5437012,22 L56.5437012,16.4077148 L53.5856934,16.4077148 L53.5856934,22 L52.2209473,22 L52.2209473,15.3222656 L57.9147949,15.3222656 L57.9147949,22 L56.5437012,22 Z M62.8723145,15.2524414 C64.5671387,15.2524414 65.6843262,16.5917969 65.6843262,18.6611328 C65.6843262,20.7368164 64.5734863,22.0698242 62.8977051,22.0698242 C61.9455566,22.0698242 61.1901855,21.6445312 60.7966309,20.9018555 L60.7648926,20.9018555 L60.7648926,24.2089844 L59.3937988,24.2089844 L59.3937988,15.3222656 L60.720459,15.3222656 L60.720459,16.4331055 L60.7458496,16.4331055 C61.126709,15.7158203 61.939209,15.2524414 62.8723145,15.2524414 Z M62.510498,20.9082031 C63.5769043,20.9082031 64.2751465,20.0258789 64.2751465,18.6611328 C64.2751465,17.309082 63.5769043,16.4204102 62.510498,16.4204102 C61.4631348,16.4204102 60.7585449,17.328125 60.7585449,18.6611328 C60.7585449,20.0068359 61.4631348,20.9082031 62.510498,20.9082031 Z M69.7341309,22.0825195 C67.791748,22.0825195 66.5666504,20.7685547 66.5666504,18.6611328 C66.5666504,16.5600586 67.8044434,15.2397461 69.7341309,15.2397461 C71.670166,15.2397461 72.9016113,16.5600586 72.9016113,18.6611328 C72.9016113,20.7685547 71.6765137,22.0825195 69.7341309,22.0825195 Z M69.7341309,20.9526367 C70.8449707,20.9526367 71.505127,20.1083984 71.505127,18.6611328 C71.505127,17.2202148 70.8449707,16.3696289 69.7341309,16.3696289 C68.623291,16.3696289 67.9631348,17.2265625 67.9631348,18.6611328 C67.9631348,20.1083984 68.623291,20.9526367 69.7341309,20.9526367 Z M77.0529785,22.1333008 C74.9645996,22.1333008 73.8347168,20.762207 73.8347168,18.121582 C73.8347168,14.4145508 74.9138184,12.9101562 77.4528809,12.8212891 L78.0495605,12.8022461 C78.7668457,12.7705078 79.4904785,12.637207 79.795166,12.472168 L79.795166,13.6083984 C79.6237793,13.7670898 78.9445801,13.9321289 78.1257324,13.9638672 L77.541748,13.9829102 C75.7580566,14.0463867 75.1931152,14.8461914 74.9455566,16.7314453 L74.9963379,16.7314453 C75.4216309,15.9443359 76.2277832,15.5126953 77.2751465,15.5126953 C79.0778809,15.5126953 80.2331543,16.7695312 80.2331543,18.7373047 C80.2331543,20.8383789 79.020752,22.1333008 77.0529785,22.1333008 Z M77.0402832,20.9780273 C78.170166,20.9780273 78.8303223,20.1782227 78.8303223,18.7563477 C78.8303223,17.4042969 78.170166,16.6298828 77.0402832,16.6298828 C75.9040527,16.6298828 75.2375488,17.4042969 75.2375488,18.7563477 C75.2375488,20.1782227 75.8977051,20.9780273 77.0402832,20.9780273 Z M84.2131348,16.3505859 C83.267334,16.3505859 82.5817871,17.0361328 82.5119629,18.0454102 L85.8508301,18.0454102 C85.8190918,17.0234375 85.1652832,16.3505859 84.2131348,16.3505859 Z M85.8444824,20.0385742 L87.145752,20.0385742 C86.9616699,21.2509766 85.7810059,22.0825195 84.2702637,22.0825195 C82.3278809,22.0825195 81.1218262,20.78125 81.1218262,18.6928711 C81.1218262,16.5981445 82.3342285,15.2397461 84.2131348,15.2397461 C86.0603027,15.2397461 87.2219238,16.5092773 87.2219238,18.5341797 L87.2219238,19.0039062 L82.5056152,19.0039062 L82.5056152,19.0864258 C82.5056152,20.2290039 83.2229004,20.9780273 84.302002,20.9780273 C85.0637207,20.9780273 85.6604004,20.6162109 85.8444824,20.0385742 Z M90.173584,18.9594727 C90.0466309,20.8510742 89.5705566,22.0634766 88.0725098,22.0634766 C87.8503418,22.0634766 87.6916504,22.0253906 87.6091309,21.9936523 L87.6091309,20.7875977 C87.6726074,20.8066406 87.7995605,20.8383789 87.9709473,20.8383789 C88.6184082,20.8383789 88.8469238,20.0639648 88.9230957,18.9023438 L89.1516113,15.3222656 L93.7790527,15.3222656 L93.7790527,22 L92.4143066,22 L92.4143066,16.4077148 L90.357666,16.4077148 L90.173584,18.9594727 Z" id="пробел" fill="#FFFFFF"></path>
                        </g>
                    </g>
                </g>
            </g>
        </g>
    </g>
</svg>
