<?xml version="1.0" encoding="UTF-8"?>
<svg width="41px" height="36px" viewBox="0 0 41 36" version="1.1" xmlns="http://www.w3.org/2000/svg" xmlns:xlink="http://www.w3.org/1999/xlink">
    <title>84A547CF-3E0C-416F-882D-B90CB228BBF3</title>
    <g id="web-player-(актуализация-2021.08:-новая-страница-проекта-и-стиль-кнопок)" stroke="none" stroke-width="1" fill="none" fill-rule="evenodd">
        <g id="web-player-player-skin.-icon-pack" transform="translate(-350.000000, -1710.000000)">
            <g id="icons/48/error/warning-sign" transform="translate(346.731190, 1705.000000)">
                <g id="warning-sign" transform="translate(4.093175, 5.837738)">
                    <path d="M21.3347786,0.384007778 C21.7657314,0.633506786 22.1237911,0.991566488 22.3732902,1.42251932 L39.4301154,30.8843084 C40.2187523,32.2464993 39.7537948,33.9900898 38.3916039,34.7787267 C37.9576476,35.0299645 37.4650869,35.1622617 36.9636505,35.1622617 L2.85,35.1622617 C1.27598846,35.1622617 0,33.8862733 0,32.3122617 C0,31.8108254 0.132297267,31.3182646 0.383535086,30.8843084 L17.4403603,1.42251932 C18.2289972,0.0603283626 19.9725877,-0.404629092 21.3347786,0.384007778 Z M19.0413861,4.64402213 L3.97791091,30.6612031 C3.70118388,31.1391577 3.86431105,31.7509481 4.34226565,32.0276751 C4.4945363,32.115837 4.66737291,32.1622617 4.84332426,32.1622617 L34.969378,32.1622617 C35.5216627,32.1622617 35.969378,31.7145465 35.969378,31.1622617 C35.969378,30.9863191 35.9229579,30.8134908 35.8348042,30.6612255 L20.7722258,4.64404447 C20.4955111,4.16608273 19.8837249,4.00293976 19.4057632,4.27965445 C19.2545593,4.36719358 19.1289292,4.49282044 19.0413861,4.64402213 Z" id="Triangle" fill="#979797" fill-rule="nonzero"></path>
                    <path d="M19.907033,27.1622617 C20.7310362,27.1622617 21.4068252,27.832116 21.4068252,28.6712601 C21.4068252,29.5104042 20.7310362,30.1622617 19.907033,30.1622617 C19.0657672,30.1622617 18.4068252,29.5099728 18.4068252,28.6712601 C18.4068252,27.8325474 19.0657672,27.1622617 19.907033,27.1622617 Z M19.9068252,13.1622617 C21.0112472,13.1622617 21.9068252,14.0807018 21.9068252,15.2150598 L21.9068252,15.3504118 C21.9068252,15.4014402 21.9042074,15.451928 21.9015982,15.5002623 L21.2023,25.2717464 C21.1661837,25.7750114 20.7584334,26.1622617 20.2674625,26.1622617 L19.5467133,26.1622617 C19.0552171,26.1622617 18.6479921,25.7744797 18.6113505,25.2717464 L17.9125776,15.5002623 C17.9094431,15.4492427 17.9068252,15.4014402 17.9068252,15.3504118 L17.9068252,15.2150598 C17.9068252,14.0807018 18.801878,13.1622617 19.9068252,13.1622617 Z" id="Clip-2" fill="#8F8F8F"></path>
                </g>
            </g>
        </g>
    </g>
</svg>