<svg width="10" height="7" viewBox="0 0 10 7" xmlns="http://www.w3.org/2000/svg">
    <g fill="#FFF" fill-rule="evenodd">
        <path d="M1.267 3.194c-.078-.064-.151-.117-.216-.18C.7 2.677.352 2.338 0 2 3.113-.657 7.107-.581 10 2L8.8 3.233C6.3 1.315 3.787 1.32 1.267 3.194z" opacity=".2"/>
        <path d="m8.136 3.855-1.23 1.216c-.556-.322-1.173-.553-1.864-.551a3.387 3.387 0 0 0-1.892.557l-1.2-1.259c1.439-1.413 4.694-1.407 6.186.037z" opacity=".5"/>
        <path d="M5.017 6.964 3.975 5.926c.454-.6 1.533-.613 2.117-.019L5.017 6.964z"/>
    </g>
</svg>
