<svg xmlns="http://www.w3.org/2000/svg" width="56" height="57" viewBox="0 0 56 57">
    <g fill="none" fill-rule="evenodd">
        <g>
            <g>
                <g>
                    <g>
                        <g>
                            <path fill="#979797" fill-rule="nonzero" d="M25 1.425c.502.291.92.71 1.21 1.212l19.9 34.372c.92 1.59.378 3.623-1.211 4.544-.506.293-1.081.447-1.666.447h-39.8C1.598 42 .11 40.511.11 38.675c0-.585.154-1.16.447-1.666l19.9-34.372c.92-1.59 2.954-2.132 4.543-1.212zm-2.532 4.721L4.605 37c-.277.478-.114 1.09.364 1.366.152.089.325.135.501.135h35.725c.553 0 1-.448 1-1 0-.176-.046-.349-.134-.501L24.199 6.146c-.277-.478-.889-.64-1.367-.364-.15.087-.277.213-.364.364z" transform="translate(-4597 -2486) translate(4329 2416) translate(86 70.5) translate(182) translate(4.667 5.833)"/>
                            <path fill="#8F8F8F" d="M23.334 32.667c.96 0 1.75.781 1.75 1.76 0 .98-.79 1.74-1.75 1.74-.982 0-1.75-.761-1.75-1.74 0-.978.768-1.76 1.75-1.76zm0-16.334c1.288 0 2.333 1.072 2.333 2.395v.158c0 .06-.003.119-.006.175l-.816 11.4c-.042.587-.518 1.039-1.09 1.039h-.842c-.573 0-1.048-.452-1.091-1.039l-.815-11.4c-.004-.06-.007-.115-.007-.175v-.158c0-1.323 1.044-2.395 2.333-2.395z" transform="translate(-4597 -2486) translate(4329 2416) translate(86 70.5) translate(182) translate(4.667 5.833)"/>
                        </g>
                    </g>
                </g>
            </g>
        </g>
    </g>
</svg>
