<svg xmlns="http://www.w3.org/2000/svg" width="56" height="57" viewBox="0 0 56 57">
    <g fill="none" fill-rule="evenodd">
        <g fill="#8F8F8F" fill-rule="nonzero">
            <g>
                <g>
                    <g>
                        <g>
                            <path d="M38.5 7c3.222 0 5.833 2.612 5.833 5.833v17.5c0 3.222-2.611 5.834-5.833 5.834H5.833C2.612 36.167 0 33.555 0 30.333v-17.5C0 9.612 2.612 7 5.833 7H38.5zm0 3.5H5.833c-1.23 0-2.238.952-2.327 2.16l-.006.173v17.5c0 1.23.952 2.238 2.16 2.327l.173.007H38.5c1.23 0 2.238-.952 2.327-2.16l.006-.174v-17.5c0-1.23-.952-2.238-2.159-2.327L38.5 10.5z" transform="translate(-3410 -2923) translate(3142 2853) translate(86 70.5) translate(182) translate(5.833 9.333)"/>
                            <path d="M34.167 0c1.104 0 2 .784 2 1.75 0 .913-.8 1.662-1.818 1.743l-.182.007h-24c-1.105 0-2-.783-2-1.75 0-.913.798-1.662 1.818-1.743L10.167 0h24zM18.479 14.25c.372.87.18 1.88-.484 2.555-.664.674-1.67.88-2.547.52-.875-.358-1.448-1.21-1.448-2.158-.005-1.277 1.022-2.32 2.299-2.333.947-.014 1.808.545 2.18 1.416zm-5.296 12.964c.57-.555 8.95-8.413 19.074-.054.473.399.548 1.102.166 1.59-.21.263-.528.417-.864.417-.255 0-.503-.092-.697-.258-8.562-7.064-15.383-.812-16.09-.125l-.05.05c-.205.211-.486.331-.78.331-.294 0-.576-.12-.78-.331-.435-.44-.438-1.147-.009-1.59zm15.95-14.38c.946-.014 1.807.545 2.18 1.416.371.87.18 1.88-.485 2.555-.663.674-1.67.88-2.546.52-.876-.358-1.449-1.21-1.449-2.158-.005-.615.235-1.205.666-1.643.431-.438 1.019-.686 1.633-.69z" transform="translate(-3410 -2923) translate(3142 2853) translate(86 70.5) translate(182) translate(5.833 9.333)"/>
                        </g>
                    </g>
                </g>
            </g>
        </g>
    </g>
</svg>
