<?xml version="1.0" encoding="UTF-8"?>
<svg width="24px" height="24px" viewBox="0 0 24 24" version="1.1" xmlns="http://www.w3.org/2000/svg" xmlns:xlink="http://www.w3.org/1999/xlink">
    <title>2364A392-0853-4BCC-8591-701B5BCC292A</title>
    <g id="web-player-(актуализация-2021.08:-новая-страница-проекта-и-стиль-кнопок)" stroke="none" stroke-width="1" fill="none" fill-rule="evenodd">
        <g id="web-player-player-skin.-icon-pack" transform="translate(-223.000000, -1031.000000)" fill="#FFFFFF">
            <g id="icons/24/hotkeys-rewind" transform="translate(235.000000, 1043.000000) scale(-1, 1) translate(-235.000000, -1043.000000) translate(223.000000, 1031.000000)">
                <rect id="Rectangle" fill-opacity="0" opacity="0" x="0" y="0" width="24" height="24"></rect>
                <path d="M15.1318856,5.22733042 C15.4060199,4.74788405 16.0169177,4.58144576 16.4963641,4.85558008 L16.4963641,4.85558008 L20.481714,7.13429417 C20.6365695,7.22283632 20.7649222,7.351189 20.8534643,7.50604451 C21.1275986,7.98549088 20.9611603,8.59638873 20.481714,8.87052305 L20.481714,8.87052305 L16.4963641,11.1492371 C16.3452125,11.2356615 16.1741149,11.2811227 16,11.2811227 C15.4477153,11.2811227 15,10.8334075 15,10.2811227 L15,10.2811227 L14.9997913,9.14452364 L11.4963641,11.1492371 C11.3830004,11.2140554 11.258417,11.2558319 11.1297559,11.272669 L11,11.2811227 C10.4477153,11.2811227 10,10.8334075 10,10.2811227 L10,10.2811227 L9.99979132,9.50152364 L9,9.50240861 C6.97444646,9.50240861 5.49779132,11.0084252 5.49779132,13 C5.49779132,14.9258781 6.87827787,16.3989474 8.7993721,16.4950122 L9,16.5 L14.0049412,16.5 C14.8333683,16.5 15.5049412,17.1715729 15.5049412,18 C15.5049412,18.7796961 14.9100531,19.4204487 14.1494012,19.4931334 L14.0049412,19.5 L9,19.5 C5.30444984,19.5 2.49779132,16.6356284 2.49779132,13 C2.49779132,9.44367688 5.18353508,6.62721915 8.76025194,6.50644514 L9,6.50240861 L9.99979132,6.50152364 L10,5.72369452 C10,5.59310837 10.0255719,5.46421943 10.0748182,5.3441695 L10.1318856,5.22733042 C10.4060199,4.74788405 11.0169177,4.58144576 11.4963641,4.85558008 L11.4963641,4.85558008 L14.9997913,6.85852364 L15,5.72369452 C15,5.59310837 15.0255719,5.46421943 15.0748182,5.3441695 Z" id="Combined-Shape" fill-rule="nonzero"></path>
            </g>
        </g>
    </g>
</svg>