<svg width="36" height="36" viewBox="0 0 36 36" xmlns="http://www.w3.org/2000/svg">
    <g fill="none" fill-rule="evenodd" opacity=".87">
        <circle fill="#21A4F7" cx="18" cy="18" r="18"/>
        <g fill="#FFF">
            <path d="m14.032 13.378 7.604 7.616v3.85c0 .937-1.002 1.466-1.805.96l-.104-.071-4-3.111h-3.545c-.727 0-1.182-.445-1.182-1.156v-6.932c0-.711.455-1.156 1.182-1.156h1.85zm5.695-3.11c.728-.623 1.91-.09 1.91.888l-.001 7.19-5.407-5.358z"/>
            <path d="m9.545 8.85 17.182 17.028a.973.973 0 0 1 0 1.352c-.363.36-1 .36-1.363 0L8.273 10.11a.973.973 0 0 1 0-1.351c.272-.36.909-.36 1.272.09z"/>
        </g>
    </g>
</svg>
