<?xml version="1.0" encoding="UTF-8"?>
<svg width="24px" height="24px" viewBox="0 0 24 24" version="1.1" xmlns="http://www.w3.org/2000/svg" xmlns:xlink="http://www.w3.org/1999/xlink">
    <title>3AB8861A-CBA1-4502-BC9A-B4E0801A1083</title>
    <g id="web-player-(актуализация-2021.08:-новая-страница-проекта-и-стиль-кнопок)" stroke="none" stroke-width="1" fill="none" fill-rule="evenodd">
        <g id="web-player-player-skin.-icon-pack" transform="translate(-291.000000, -1129.000000)" fill="#FFFFFF">
            <g id="icons/app-player/volume-off" transform="translate(291.000000, 1129.000000)">
                <g id="volume-off" transform="translate(0.000000, 2.500000)">
                    <path d="M6.032,4.878 L13.636,12.494 L13.6363636,16.3439506 C13.6363636,17.280923 12.6344697,17.8097446 11.8308673,17.304584 L11.7272727,17.2327782 L7.72727273,14.1218815 L4.18181818,14.1218815 C3.45454545,14.1218815 3,13.6774677 3,12.9664056 L3,12.9664056 L3,6.03359444 C3,5.32253234 3.45454545,4.87811852 4.18181818,4.87811852 L4.18181818,4.87811852 L6.032,4.878 Z M11.7272727,1.7672218 C12.4545455,1.14504245 13.6363636,1.67833903 13.6363636,2.65604943 L13.6363636,2.65604943 L13.636,9.846 L8.229,4.488 Z" id="Combined-Shape"></path>
                    <path d="M1.54544971,0.350063977 L18.7272732,17.378268 C19.0909089,17.7386529 19.0909089,18.3693264 18.7272732,18.7297113 C18.3636375,19.0900962 17.727275,19.0900962 17.3636393,18.7297113 L0.272724735,1.61141109 C-0.0909082449,1.2510262 -0.0909082449,0.620352644 0.272724735,0.259967755 C0.545451515,-0.100418035 1.181814,-0.100418035 1.54544971,0.350063977 Z" id="Path"></path>
                </g>
            </g>
        </g>
    </g>
</svg>