<svg width="16" height="16" viewBox="0 0 16 16" xmlns="http://www.w3.org/2000/svg">
    <g fill="#FFF" fill-rule="nonzero">
        <path d="M7.333 13.292v1.342a6.636 6.636 0 0 1-3.552-1.472l.949-.949c.737.574 1.63.958 2.603 1.08zM14.667 8a6.668 6.668 0 0 1-6 6.634v-1.342a5.334 5.334 0 0 0 0-10.584V1.366c3.369.335 6 3.177 6 6.634zm-10.88 3.27-.949.95a6.636 6.636 0 0 1-1.472-3.553h1.342a5.307 5.307 0 0 0 1.079 2.603zm-.949-7.49.949.95a5.307 5.307 0 0 0-1.08 2.603h-1.34a6.636 6.636 0 0 1 1.471-3.552zm4.496-2.414v1.342A5.307 5.307 0 0 0 4.73 3.787l-.95-.949a6.636 6.636 0 0 1 3.554-1.472z"/>
        <path d="m7.262 10.226 2.637-1.724a.6.6 0 0 0 0-1.004L7.262 5.774a.6.6 0 0 0-.929.502v3.448a.6.6 0 0 0 .929.502z"/>
    </g>
</svg>
