<svg width="24" height="24" viewBox="0 0 24 24" xmlns="http://www.w3.org/2000/svg">
    <path d="M15.132 5.227a1 1 0 0 1 1.364-.371l3.986 2.278a1 1 0 0 1 0 1.737l-3.986 2.278A1 1 0 0 1 15 10.281V9.145l-3.504 2.004a1 1 0 0 1-.366.124l-.13.008a1 1 0 0 1-1-1v-.78l-1 .001c-2.026 0-3.502 1.506-3.502 3.498 0 1.926 1.38 3.399 3.301 3.495L9 16.5h5.005a1.5 1.5 0 0 1 .144 2.993l-.144.007H9c-3.696 0-6.502-2.864-6.502-6.5 0-3.556 2.686-6.373 6.262-6.494L9 6.502h1v-.778a1 1 0 0 1 .075-.38l.057-.117a1 1 0 0 1 1.364-.371L15 6.859V5.724a1 1 0 0 1 .075-.38z" fill-rule="nonzero" fill="#FFF"/>
</svg>
