<?xml version="1.0" encoding="UTF-8"?>
<svg width="24px" height="24px" viewBox="0 0 24 24" version="1.1" xmlns="http://www.w3.org/2000/svg" xmlns:xlink="http://www.w3.org/1999/xlink">
    <title>96C9688C-D05A-49B7-B2F2-21041D9042BF</title>
    <defs>
        <path d="M13.5110935,2.89046523 L14.4879065,3.10753477 C14.7574731,3.16743846 14.9274385,3.43452692 14.8675348,3.70409353 L11.0844652,20.7279065 C11.0245615,20.9974731 10.7574731,21.1674385 10.4879065,21.1075348 L9.51109353,20.8904652 C9.24152692,20.8305615 9.07156154,20.5634731 9.13146523,20.2939065 L12.9145348,3.27009353 C12.9744385,3.00052692 13.2415269,2.83056154 13.5110935,2.89046523 Z M6.9845656,7.53134752 C7.20022153,7.35892276 7.51482813,7.39385418 7.68740848,7.60938563 L7.68740848,7.60938563 L8.31259152,8.39061437 L8.31259152,8.39061437 L8.36257462,8.46584374 C8.47521845,8.67443045 8.4262845,8.94006862 8.23455613,9.09333569 L8.23455613,9.09333569 L4.601,12 L8.23455613,14.9066643 L8.23455613,14.9066643 L8.29982603,14.9690951 C8.45548729,15.1478873 8.46602371,15.4177894 8.31259152,15.6093856 L8.31259152,15.6093856 L7.68740848,16.3906144 C7.51482813,16.6061458 7.20022153,16.6410772 6.9845656,16.4686525 L6.9845656,16.4686525 L2.375,12.781 C2.13768739,12.5912316 1.99953102,12.3038574 1.99953102,12 C1.99953102,11.6961426 2.13768739,11.4087684 2.375,11.219 L2.375,11.219 Z M16.3125915,7.60938563 C16.4851719,7.39385418 16.7997785,7.35892276 17.0154344,7.53134752 L17.0154344,7.53134752 L21.625,11.219 C21.8623126,11.4087684 22.000469,11.6961426 22.000469,12 C22.000469,12.3038574 21.8623126,12.5912316 21.625,12.781 L21.625,12.781 L17.0154344,16.4686525 C16.7997785,16.6410772 16.4851719,16.6061458 16.3125915,16.3906144 L16.3125915,16.3906144 L15.6874085,15.6093856 L15.6874085,15.6093856 L15.6374254,15.5341563 C15.5247816,15.3255695 15.5737155,15.0599314 15.7654439,14.9066643 L15.7654439,14.9066643 L19.399,12 L15.7654439,9.09333569 L15.7654439,9.09333569 L15.700174,9.03090487 C15.5445127,8.85211274 15.5339763,8.58221063 15.6874085,8.39061437 L15.6874085,8.39061437 Z" id="path-1"></path>
    </defs>
    <g id="web-player-(актуализация-2021.08:-новая-страница-проекта-и-стиль-кнопок)" stroke="none" stroke-width="1" fill="none" fill-rule="evenodd">
        <g id="web-player-player-skin.-icon-pack" transform="translate(-291.000000, -1325.000000)">
            <g id="icons/24/embed-code" transform="translate(291.000000, 1325.000000)">
                <mask id="mask-2" fill="white">
                    <use xlink:href="#path-1"></use>
                </mask>
                <use id="Combined-Shape" fill="#000000" fill-rule="nonzero" xlink:href="#path-1"></use>
                <g id="icons/color/white" mask="url(#mask-2)" fill="#FFFFFF">
                    <rect id="Color-plate" x="0" y="0" width="24" height="24"></rect>
                </g>
            </g>
        </g>
    </g>
</svg>