<?xml version="1.0" encoding="UTF-8"?>
<svg width="49px" height="48px" viewBox="0 0 49 48" version="1.1" xmlns="http://www.w3.org/2000/svg" xmlns:xlink="http://www.w3.org/1999/xlink">
    <title>A24C5D46-D080-487E-A972-392E239510E1</title>
    <g id="web-player-(актуализация-2021.08:-новая-страница-проекта-и-стиль-кнопок)" stroke="none" stroke-width="1" fill="none" fill-rule="evenodd">
        <g id="web-player-player-skin.-icon-pack" transform="translate(-210.000000, -1705.000000)">
            <g id="icons/48/error/geo-error" transform="translate(210.731190, 1705.000000)">
                <g id="geo-error" transform="translate(6.000000, 6.000000)" stroke="#8F8F8F" stroke-width="3">
                    <circle id="Oval" cx="18" cy="18" r="16.5"></circle>
                    <path d="M2.67184586,13.2489237 C5.17760562,13.1135295 6.68546587,13.3603203 7.19542661,13.9892962 C7.96036772,14.9327601 5.00884645,16.7351849 4.86948253,19.0390746 C4.76973523,20.6880438 6.71720417,20.7314633 6.71720417,21.8950142 C6.71720417,22.6707148 5.85475694,24.3025974 4.12986247,26.790662" id="Path-2"></path>
                    <path d="M20.0725722,1.64632615 C20.0725722,1.64632615 20.8509231,4.12395979 20.8509231,5.33477411 C20.8509231,6.54558844 13.3509861,8.73197328 13.0196378,10.9244295 C12.6882896,13.1168858 15.822204,14.9778179 15.1909891,16.7687518 C14.5597742,18.5596856 10.6746981,16.9267597 10.1382797,18 C9.60186132,19.0732403 9.66663117,19.973379 10.4784217,20.7472174 C11.2902123,21.5210558 14.6230396,21.1812766 15.1909891,21.7894519 C15.7589386,22.3976273 15.1987276,23.8083197 14.6712788,24.5125227 C14.1438301,25.2167257 12.5300022,26.4760538 13.0196378,26.790662 C13.5092735,27.1052701 15.9300153,26.7876211 17.2093292,26.2065495 C18.4886431,25.6254779 19.8787912,24.6030405 20.8509231,24.8960769 C21.8230549,25.1891133 21.9029021,28.0080359 21.2389744,29.0001461 C20.5750468,29.9922563 20.0725722,30.2643347 20.0725722,31.1765977 C20.0725722,31.7847731 20.461373,32.5209853 21.2389744,33.3852345" id="Path-3"></path>
                    <path d="M28.1826905,5.5 C25.2237716,8.54645174 23.7443121,10.6618483 23.7443121,11.8461898 C23.7443121,13.6227019 27.7570733,12.1603378 28.1826905,13.5175643 C28.6083078,14.8747907 27.5104968,16.6158893 28.1826905,17 C28.6308197,17.2560738 30.5680511,17.5894072 33.9943846,18" id="Path-4"></path>
                </g>
                <rect id="Rectangle" fill-opacity="0" fill="#D8D8D8" opacity="0" x="0" y="0" width="48" height="48"></rect>
            </g>
        </g>
    </g>
</svg>