<svg xmlns="http://www.w3.org/2000/svg" width="40" height="40" viewBox="0 0 40 40">
    <g fill="none" fill-rule="evenodd">
        <g fill="#979797" fill-rule="nonzero">
            <path d="M785 213c2.463 0 4.822.445 7.001 1.26v3.244c-2.135-.966-4.505-1.504-7.001-1.504-9.389 0-17 7.611-17 17s7.611 17 17 17 17-7.611 17-17c0-2.495-.538-4.865-1.503-7h3.244c.814 2.179 1.259 4.537 1.259 7 0 11.046-8.954 20-20 20s-20-8.954-20-20 8.954-20 20-20zm3.65 12.914c3.528 0 5.526 1.458 5.526 3.618 0 1.242-.522 2.034-1.674 2.52 1.422.738 2.07 1.674 2.07 3.114 0 2.52-2.124 4.176-5.922 4.176-3.798 0-5.904-1.656-5.904-4.176 0-1.44.648-2.376 2.07-3.114-1.152-.486-1.674-1.278-1.674-2.52 0-2.178 1.98-3.618 5.508-3.618zm-7.892.342V239h-3.078v-8.478h-3.456v-2.124h.288c2.088 0 3.186-.594 3.528-2.142h2.718zm7.892 7.254c-1.728 0-2.664.576-2.664 1.602 0 1.026.918 1.548 2.664 1.548s2.664-.522 2.664-1.548c0-1.008-.936-1.602-2.664-1.602zm0-4.986c-1.548 0-2.358.486-2.358 1.368 0 .864.828 1.368 2.358 1.368 1.548 0 2.358-.504 2.358-1.368 0-.882-.81-1.368-2.358-1.368zm11.629-14.69v3.944h3.825v2.261h-3.825V224h-2.329v-3.961h-3.825v-2.261h3.825v-3.944h2.329z" transform="translate(-765 -387) translate(0 174)"/>
        </g>
    </g>
</svg>
