<svg xmlns="http://www.w3.org/2000/svg" width="88" height="41" viewBox="0 0 88 41">
    <g fill="none" fill-rule="evenodd">
        <g fill="#ED0E0D" fill-rule="nonzero">
            <g>
                <g>
                    <g>
                        <path d="M78.545 28.883c-1-1.251-2.563-1.877-4.69-1.877h-.528c-.996-.009-1.984.17-2.912.529-.875.34-1.69.816-2.417 1.409-.709.582-1.312 1.282-1.783 2.07-.47.768-.795 1.616-.96 2.501-.155.796-.146 1.615.027 2.408.158.744.493 1.44.973 2.03.513.613 1.164 1.096 1.9 1.409.889.373 1.847.553 2.81.529h.53c.995.009 1.983-.17 2.912-.53.875-.34 1.69-.815 2.416-1.408.698-.576 1.295-1.263 1.767-2.034.463-.736.782-1.553.943-2.407.342-1.834.013-3.377-.987-4.63zM67.542 16.807c-.121-1.774-.7-3.488-1.68-4.972-.965-1.439-2.382-2.574-4.251-3.409-1.87-.833-4.57-1.25-7.577-1.25-3.173 0-5.952.437-8.34 1.312-2.389.876-4.418 2.054-6.087 3.535-1.652 1.457-3.007 3.22-3.99 5.19-.997 2.005-1.706 4.142-2.105 6.344-.371 1.968-.498 3.975-.38 5.974.092 1.848.694 3.634 1.74 5.16 1.038 1.5 2.606 2.819 4.713 3.743 2.105.923 4.969 1.376 8.595 1.376 1.083 0 2.257-.053 3.524-.157 1.323-.11 2.64-.287 3.945-.528 1.382-.257 2.75-.591 4.094-1.001.958-.291 1.9-.636 2.819-1.031l-1.646-7.8c-5.639 1.007-10.482 1.36-12.608-.326-.438-.352-.88-1.152-1.014-1.778-.135-.625-.115-1.409.061-2.376h19.54l.478-3.196c.234-1.592.29-3.205.169-4.81zm-12.48 3.877h-6.817c.272-1.479.775-2.723 1.51-3.737.733-1.012 1.757-1.518 3.07-1.518 1.259 0 2.019.48 2.28 1.436.262.958.248 2.231-.043 3.82v-.001z" transform="translate(-767 -428) translate(515 343) translate(86 85.5) translate(166)"/>
                        <path d="M32.832 35.77c-1.224-1.783-1.93-3.87-2.041-6.03-.127-2.148.009-4.304.405-6.42.437-2.377 1.206-4.683 2.284-6.848.6-1.195 1.322-2.325 2.157-3.37 1.608-2.093 3.632-3.833 5.944-5.108h-6.32l-9.781.017-2.396 12.9c-5.858 1.325-5.491-1.48-5.268-2.69l1.902-10.234H1.625L0 16.74h3.045l-.541 2.94c-.391 2.128-.382 3.89.028 5.287.41 1.398 1.09 2.513 2.043 3.348.995.856 2.183 1.457 3.462 1.752 1.418.375 2.882.543 4.348.5 5.255-.238 7.998-1.585 9.35-2.31l-.723 3.998c-.414 2.252.029 4.077 1.328 5.473 1.3 1.397 3.32 1.982 6.06 1.982 1.295.012 2.59-.055 3.876-.196.721-.083 2.19-.31 3.812-.63-.29-.198-.568-.405-.833-.621-.937-.695-1.755-1.537-2.423-2.492zM70.509 0l-1.253 24.89h9.985L87.217 0H70.51z" transform="translate(-767 -428) translate(515 343) translate(86 85.5) translate(166)"/>
                    </g>
                </g>
            </g>
        </g>
    </g>
</svg>
