<svg xmlns="http://www.w3.org/2000/svg" xmlns:xlink="http://www.w3.org/1999/xlink" width="140px" height="37px" viewBox="0 0 140 37" version="1.1">
    <!-- Generator: Sketch 50.2 (55047) - http://www.bohemiancoding.com/sketch -->
    <title>logo</title>
    <desc>Created with Sketch.</desc>
    <defs/>
    <g id="Page-1" stroke="none" stroke-width="1" fill="none" fill-rule="evenodd">
        <g id="Artboard" transform="translate(-701.000000, -13.000000)">
            <g id="logo" transform="translate(701.000000, 13.000000)">
                <path d="M16.3556219,21.6892933 C15.5288557,22.5335337 14.3869154,23.0561587 13.1255224,23.0561587 C10.6027363,23.0561587 8.55741294,20.966726 8.55741294,18.3893558 C8.55741294,15.8121635 10.6027363,13.7227308 13.1255224,13.7227308 C14.3869154,13.7227308 15.5288557,14.2451779 16.3556219,15.089774 L22.406791,8.90810577 C20.0314925,6.48158173 16.7500249,4.98076923 13.1255224,4.98076923 C5.87651741,4.98076923 0,10.9840192 0,18.3893558 C0,25.7948702 5.87651741,31.7981202 13.1255224,31.7981202 C16.7500249,31.7981202 20.0314925,30.2973077 22.406791,27.8707837 L16.3556219,21.6892933 Z" id="Fill-1" fill="#FFCD44"/>
                <path d="M56.7536318,21.6892933 C55.9268657,22.5335337 54.7847512,23.0561587 53.5235323,23.0561587 C51.0007463,23.0561587 48.9554229,20.966726 48.9554229,18.3893558 C48.9554229,15.8121635 51.0007463,13.7227308 53.5235323,13.7227308 C54.7847512,13.7227308 55.9268657,14.2451779 56.7536318,15.089774 L62.8046269,8.90810577 C60.4295025,6.48158173 57.1480348,4.98076923 53.5235323,4.98076923 C46.2745274,4.98076923 40.39801,10.9840192 40.39801,18.3893558 C40.39801,25.7948702 46.2745274,31.7981202 53.5235323,31.7981202 C57.1480348,31.7981202 60.4295025,30.2973077 62.8046269,27.8707837 L56.7536318,21.6892933 Z" id="Fill-3" fill="#FFCD44"/>
                <polygon id="Fill-5" fill="#FFCD44" points="41.1967413 5.33653846 22.2885572 5.33653846 22.2885572 13.7305577 27.1589552 13.7305577 27.1589552 31.4320337 36.3263433 31.4320337 36.3263433 13.7305577 41.1967413 13.7305577"/>
                <g id="Group-9" stroke-width="1" transform="translate(65.298507, 0.000000)" fill="#E5007E">
                    <path d="M46.1251766,20.1357736 C46.1251766,20.7452062 45.9759478,21.2363457 45.6781866,21.6100812 C45.3795547,21.9838168 45.000301,22.1705957 44.539903,22.1705957 C43.8621915,22.1705957 43.3944801,21.8872255 43.1374652,21.3192399 C42.8794055,20.7523216 42.7510721,19.7483409 42.7510721,18.3087207 C42.7510721,16.7862062 42.8861965,15.7272591 43.1576642,15.1315236 C43.4282612,14.5364995 43.8893557,14.2387207 44.539903,14.2387207 C45.000301,14.2387207 45.3795547,14.3911678 45.6781866,14.6955284 C45.9759478,15.0004226 46.1251766,15.4293024 46.1251766,15.9828793 L46.1251766,20.1357736 Z M73.404107,25.7663553 C72.6177388,24.894187 71.0728632,24.4581918 68.7698284,24.4581918 L65.9955995,24.4581918 C64.4240821,24.4581918 63.5184353,24.410163 63.1799279,24.3126822 C62.8407239,24.2160909 62.6718184,23.9046149 62.6718184,23.3784322 C62.6718184,22.8527832 62.8548284,22.5341918 63.2205,22.4231918 C63.5863458,22.3129034 64.5417935,22.2572255 66.0866692,22.2572255 C68.9049527,22.2572255 71.3307488,22.3959755 73.3633607,22.6724082 L73.3633607,15.4463793 C70.5429876,15.2192207 66.7776144,14.9895716 63.0376642,14.9895716 C60.6799527,14.9895716 58.9379627,15.1834659 57.8139577,15.5708986 C56.6887338,15.9590428 55.7454751,16.8230284 55.3127637,18.0271293 L55.3127637,0.118773558 L46.1251766,0.118773558 L46.1251766,10.1687207 C45.6642562,9.28303317 44.9597289,8.59070625 44.0114204,8.09227356 C43.0624154,7.59401875 41.7261468,7.3448024 40.3353756,7.3448024 C37.0885597,7.3448024 35.7723159,8.56989375 35.2305995,9.10977356 C34.9234353,9.41555721 34.6570174,9.79249471 34.4282114,10.2356053 C34.564903,9.73112452 34.6396045,9.20031683 34.6396045,8.6513649 C34.6396045,5.37793221 32.0419428,2.72424952 28.8376144,2.72424952 C25.6329378,2.72424952 23.0352761,5.37793221 23.0352761,8.6513649 C23.0352761,11.9249755 25.6329378,14.5786582 28.8376144,14.5786582 C31.0441816,14.5786582 32.9627388,13.3203024 33.9437836,11.4676341 C33.6618682,12.4065091 33.3254502,14.2387207 33.3254502,15.5917111 L24.243908,15.5917111 L24.243908,35.8429851 L17.6163706,25.3509947 L23.9175896,15.5917111 L14.201694,15.5917111 L9.28271393,23.6897303 L9.28271393,0.118773558 L0.0951268657,0.118773558 L0.0951268657,36.3563601 L9.28271393,36.3563601 L9.28271393,27.7597303 L14.6488582,36.3563601 L24.243908,36.3563601 L24.5679627,36.3563601 L33.4311468,36.3563601 L33.4311468,22.310413 C33.687291,24.6800139 34.4231617,26.5995668 35.149107,27.3411678 C35.9530622,28.1624611 37.1921667,29.1475861 40.3482612,29.1475861 C42.8943806,29.1475861 44.6619677,28.2339707 46.1251766,26.4067399 L46.1251766,28.5662591 L55.3127637,28.5662591 L55.3127637,24.5314803 C55.5067438,25.1857399 55.7778632,25.6948457 56.1268184,26.0570187 C56.9123159,26.8740428 58.4981119,27.2821101 60.8831617,27.2821101 L63.6173408,27.2821101 C64.9447289,27.2821101 66.3774652,27.3379659 66.7166692,27.4482543 C67.0553507,27.5590764 67.2247786,27.8915428 67.2247786,28.4449418 C67.2247786,28.9713024 67.0278383,29.2898937 66.6353507,29.4001822 C66.2421667,29.5111822 65.2463209,29.5663264 63.6474652,29.5663264 C60.7473408,29.5663264 58.1186841,29.4279322 55.7607985,29.1509659 L55.7607985,36.5847639 C58.281495,36.8610187 61.3028134,37.0001245 64.8263209,37.0001245 C68.6744055,37.0001245 71.2628383,36.5847639 72.5909229,35.7542207 C73.9186592,34.9236774 74.5829627,33.2209659 74.5829627,30.6460861 C74.5829627,28.2652784 74.1897786,26.6385236 73.404107,25.7663553 Z" id="Fill-7"/>
                </g>
            </g>
        </g>
    </g>
</svg>