<svg xmlns="http://www.w3.org/2000/svg" width="188" height="37" viewBox="0 0 188 37">
    <g fill="none" fill-rule="evenodd">
        <g fill="#CC1B52" fill-rule="nonzero">
            <g>
                <g>
                    <g>
                        <path d="M46.39 22.294c-1.534 0-2.918-.925-3.505-2.343-.586-1.418-.26-3.05.826-4.135 1.086-1.084 2.718-1.407 4.136-.818 1.417.589 2.34 1.974 2.337 3.509-.003 2.093-1.7 3.787-3.793 3.787m0-13.046c-3.745 0-7.121 2.256-8.554 5.716-1.434 3.46-.641 7.442 2.007 10.09 2.648 2.648 6.63 3.44 10.09 2.007 3.46-1.433 5.716-4.81 5.716-8.554 0-5.114-4.146-9.26-9.26-9.26M74.401 9.518L69.212 18.501 64.022 9.518 64.022 9.518 58.91 9.518 58.91 9.518 58.91 27.49 64.022 27.49 64.022 18.375 66.653 22.93 66.659 22.93 71.765 22.93 71.771 22.93 74.401 18.369 74.401 27.49 79.513 27.49 79.513 9.518zM92.326 16.14l2.769 6.712h-5.538l2.77-6.712zm2.799-6.622h-5.598l-7.413 17.978h20.43l-7.42-17.978zM121.607 22.762L118.461 22.762 118.461 14.18 113.349 14.18 113.349 22.762 110.203 22.762 110.203 9.518 105.091 9.518 105.091 27.49 105.534 27.49 105.534 27.49 123.765 27.49 123.765 27.49 126.719 27.49 126.719 9.518 121.607 9.518zM141.402 14.216L136.08 14.216 136.08 9.518 130.968 9.518 130.968 27.49 136.08 27.49 136.08 18.531 141.402 18.531 141.402 27.49 146.514 27.49 146.514 9.518 141.402 9.518zM166.542 9.506L162.041 9.506 155.988 19.807 155.988 9.518 150.87 9.518 150.87 27.49 155.988 27.49 155.988 27.46 162.053 17.134 162.053 27.49 167.171 27.49 167.171 9.518 166.536 9.518zM187.079 9.518L187.085 9.512 182.585 9.512 176.526 19.807 176.526 9.518 171.414 9.518 171.414 27.49 176.526 27.49 176.526 27.46 182.597 17.134 182.597 27.49 187.709 27.49 187.709 9.518zM179.546 7.528c1.986 0 3.596-1.61 3.596-3.596s-1.61-3.596-3.596-3.596-3.595 1.61-3.595 3.596 1.61 3.596 3.595 3.596M15.468 25.327c-3.78-.004-6.84-3.07-6.838-6.848.002-3.78 3.067-6.841 6.846-6.84 3.779.001 6.841 3.065 6.841 6.844-.003 3.78-3.069 6.844-6.85 6.844m1.157-23.468H0v33.248h16.624c9.182 0 16.624-7.443 16.624-16.624S25.806 1.859 16.624 1.859" transform="translate(-717 -1741) translate(515 1654) translate(86 87.5) translate(116)"/>
                    </g>
                </g>
            </g>
        </g>
    </g>
</svg>
