<svg xmlns="http://www.w3.org/2000/svg" width="119" height="41" viewBox="0 0 119 41">
    <g fill="none" fill-rule="evenodd">
        <g fill-rule="nonzero">
            <g>
                <g>
                    <g>
                        <path fill="#FFF" d="M8.445 39.125c-.305 0-.602-.004-.904-.01-.627-.009-1.251-.063-1.87-.164-.576-.1-1.134-.284-1.656-.548-.517-.261-.99-.605-1.397-1.016-.414-.407-.76-.879-1.02-1.397-.265-.521-.449-1.08-.544-1.657-.103-.62-.158-1.247-.166-1.875-.007-.21-.015-.913-.015-.913v-23.1s.009-.692.015-.895c.007-.628.063-1.253.165-1.872.096-.579.279-1.14.544-1.662.26-.518.603-.99 1.015-1.398.41-.412.884-.757 1.402-1.023.52-.263 1.078-.446 1.653-.544C6.287.95 6.915.895 7.543.887l.902-.012h102.769l.913.013c.623.007 1.244.061 1.858.162.581.099 1.145.284 1.671.548 1.038.535 1.883 1.381 2.415 2.42.26.52.441 1.076.535 1.649.104.624.162 1.255.174 1.887.003.283.003.588.003.89.008.375.008.732.008 1.092v20.929c0 .363 0 .718-.008 1.075 0 .325 0 .623-.004.93-.011.62-.069 1.24-.17 1.853-.094.581-.276 1.145-.54 1.67-.264.513-.607.98-1.016 1.386-.409.414-.881.759-1.4 1.022-.525.266-1.087.452-1.668.55-.618.101-1.243.156-1.869.163-.293.007-.6.011-.897.011l-1.084.002-101.69-.002z" transform="translate(-1005 -2203) translate(768 1979) translate(86 72.5) translate(151 152)"/>
                        <path fill="#000" d="M23.022 13.31l.275.018c1.66.052 3.198.883 4.15 2.244-1.503.924-2.428 2.553-2.45 4.317.002 1.996 1.197 3.798 3.035 4.575-.353 1.149-.886 2.234-1.579 3.216-.93 1.391-1.905 2.75-3.453 2.776-1.503.034-2.009-.885-3.734-.885-1.74 0-2.28.86-3.722.92-1.474.054-2.6-1.486-3.564-2.864-1.927-2.814-3.427-7.932-1.416-11.414.944-1.697 2.71-2.774 4.651-2.837 1.476-.03 2.846.997 3.753.997.89 0 2.583-1.228 4.329-1.045zm.293-5.463c.1 1.315-.315 2.617-1.159 3.63-.819 1.018-2.06 1.605-3.366 1.591-.083-1.277.345-2.534 1.19-3.495.855-.974 2.046-1.59 3.335-1.726zM51.347 21.348c2.298 0 3.812 1.816 3.812 4.622 0 2.813-1.506 4.62-3.778 4.62-1.175.062-2.281-.553-2.849-1.583h-.043v4.484h-1.858V21.442h1.799v1.506h.034c.593-1.024 1.7-1.638 2.883-1.6zm9.965 0c2.297 0 3.813 1.816 3.813 4.622 0 2.813-1.507 4.62-3.78 4.62-1.174.062-2.28-.553-2.848-1.583h-.043v4.484h-1.858V21.442h1.799v1.506h.034c.593-1.024 1.7-1.638 2.883-1.6zm13.34-3.477c2.625 0 4.424 1.472 4.484 3.614H77.26c-.112-1.239-1.136-1.987-2.634-1.987-1.497 0-2.521.757-2.521 1.858 0 .878.654 1.395 2.255 1.79l1.368.336c2.548.603 3.606 1.626 3.606 3.443 0 2.323-1.85 3.778-4.794 3.778-2.753 0-4.613-1.42-4.733-3.667h1.902c.138 1.232 1.334 2.04 2.97 2.04 1.566 0 2.693-.808 2.693-1.919 0-.964-.68-1.54-2.29-1.936l-1.609-.388c-2.28-.55-3.339-1.617-3.339-3.348 0-2.142 1.867-3.614 4.518-3.614zm15.706 3.46c2.625 0 4.295 1.79 4.295 4.639 0 2.856-1.661 4.638-4.295 4.638-2.633 0-4.294-1.782-4.294-4.638 0-2.849 1.678-4.639 4.294-4.639zm15.049 0c2.505 0 4.08 1.72 4.08 4.466v.637h-6.395v.112c-.06.674.173 1.341.64 1.832.465.49 1.12.757 1.796.732.902.085 1.752-.433 2.09-1.273h1.765c-.25 1.643-1.85 2.771-3.898 2.771-2.634 0-4.269-1.764-4.269-4.595 0-2.84 1.644-4.682 4.19-4.682zM83.347 19.3v2.142h1.72v1.472h-1.72v4.991c0 .776.344 1.137 1.1 1.137.205-.004.41-.018.612-.043v1.463c-.34.063-.686.092-1.032.086-1.833 0-2.548-.689-2.548-2.445v-5.189h-1.316v-1.472h1.316V19.3h1.867zm-42.354-1.222l4.484 12.418h-2.04l-1.135-3.356h-4.734l-1.136 3.356h-2.005l4.483-12.418h2.083zm59.185 3.27c.214-.001.428.022.637.069v1.738c-.27-.082-.552-.12-.835-.112-.546-.022-1.075.196-1.447.596-.373.4-.551.944-.49 1.487v5.37h-1.858v-9.054h1.773v1.541H98c.247-.992 1.156-1.674 2.177-1.635zm-9.82 1.514c-1.506 0-2.401 1.162-2.401 3.108 0 1.962.895 3.106 2.4 3.106 1.507 0 2.402-1.144 2.402-3.106 0-1.954-.895-3.108-2.401-3.108zm-39.502.07c-1.42 0-2.375 1.23-2.375 3.038 0 1.824.956 3.046 2.375 3.046 1.446 0 2.393-1.197 2.393-3.046 0-1.833-.947-3.038-2.393-3.038zm9.965 0c-1.42 0-2.375 1.23-2.375 3.038 0 1.824.955 3.046 2.375 3.046 1.446 0 2.393-1.197 2.393-3.046 0-1.833-.947-3.038-2.393-3.038zm-20.86-2.788h-.052l-1.85 5.447h3.752l-1.85-5.447zm65.446 2.693c-.611-.004-1.199.237-1.632.668-.433.432-.675 1.019-.674 1.63h4.526c.034-.606-.186-1.198-.608-1.634-.421-.437-1.006-.677-1.612-.664zM56.122 10.195l1.129 3.576h.07l1.125-3.576h.943l-1.679 4.689c-.385 1.095-.81 1.447-1.729 1.447-.074 0-.285-.008-.368-.02v-.766c.096.013.193.018.29.017.392.03.743-.242.815-.628l.066-.22-1.63-4.52h.968zm-3.561-.075c1.145 0 1.869.893 1.869 2.324 0 1.431-.724 2.328-1.86 2.328-.57.039-1.11-.256-1.386-.756h-.07v2.179h-.89v-6h.856v.744h.067c.28-.517.826-.833 1.414-.819zM37.573 8.586c1.175 0 2.002.658 2.002 1.604.006.654-.446 1.223-1.084 1.365v.07c.764.034 1.357.68 1.327 1.443-.054.533-.322 1.022-.741 1.356-.42.334-.955.484-1.487.418-.533.073-1.073-.074-1.495-.407-.423-.333-.692-.823-.746-1.358h.89c.053.57.577.939 1.35.939.774 0 1.28-.414 1.28-.997 0-.591-.476-.955-1.307-.955h-.824v-.81h.798c.278.034.557-.05.771-.23.214-.18.342-.442.354-.722 0-.55-.414-.906-1.116-.906-.284-.04-.573.038-.8.214-.226.176-.372.436-.404.721h-.876c.03-.518.275-1 .674-1.331.4-.331.92-.48 1.434-.414zm39.084 1.522c1.253 0 2.01.856 2.01 2.27v.31h-3.18v.05c-.029.334.085.665.314.91.228.246.55.384.885.38.435.052.857-.164 1.07-.546h.857c-.25.85-1.072 1.398-1.952 1.303-.6.016-1.178-.233-1.578-.68-.401-.449-.585-1.05-.502-1.645-.08-.596.103-1.198.5-1.65.4-.45.974-.707 1.576-.702zm-14.723 0c1.07 0 1.682.484 1.682 1.245.01.436-.286.82-.71.921v.07c.507.066.886.502.88 1.014 0 .856-.728 1.422-1.84 1.422-.984 0-1.783-.45-1.865-1.36h.885c.087.397.459.604.98.604.591 0 .954-.26.954-.666 0-.434-.326-.641-.955-.641h-.673v-.69h.662c.537 0 .81-.207.81-.584 0-.33-.264-.583-.81-.583-.497 0-.86.211-.918.567h-.857c.133-.85.923-1.436 1.775-1.32zm-19.09 0c1.129 0 1.765.562 1.765 1.513v3.077h-.856v-.633h-.07c-.29.462-.808.732-1.353.707-.382.04-.763-.084-1.05-.34-.285-.258-.45-.623-.45-1.008 0-.81.604-1.278 1.674-1.344l1.22-.07v-.389c0-.475-.314-.744-.922-.744-.496 0-.84.182-.939.5h-.86c.09-.773.82-1.27 1.84-1.27zm6.2.087v.748h-2.076v3.755h-.889v-4.503h2.965zm16.903 0v3.097h.07l2.075-3.097h.881v4.503h-.88v-3.114h-.067l-2.08 3.114h-.88v-4.503h.88zm7.879 0v.748h-1.418v3.755h-.89v-3.755H70.1v-.748h3.726zm10.585 0c.88 0 1.397.446 1.397 1.145.003.457-.314.853-.76.951v.07c.546.035.969.491.962 1.038 0 .786-.59 1.299-1.579 1.299h-2.05v-4.503h2.03zm-40.687 2.468l-1.1.07c-.62.042-.901.253-.901.65 0 .405.351.64.835.64.286.03.572-.059.791-.244.22-.186.355-.452.375-.74v-.376zm40.48.033h-.943v1.32h1.054c.525 0 .807-.232.807-.658 0-.45-.319-.662-.918-.662zm-31.891-1.778c-.748 0-1.216.587-1.216 1.53 0 .939.467 1.526 1.212 1.526.756 0 1.207-.575 1.207-1.53 0-.95-.45-1.526-1.203-1.526zm31.928-.041h-.98v1.166h.881c.537 0 .794-.207.794-.587 0-.352-.224-.58-.695-.58zm-7.588-.013c-.31-.004-.61.118-.83.337-.22.22-.34.52-.336.83h2.273c.023-.306-.084-.607-.295-.829-.211-.222-.506-.345-.812-.338z" transform="translate(-1005 -2203) translate(768 1979) translate(86 72.5) translate(151 152)"/>
                    </g>
                </g>
            </g>
        </g>
    </g>
</svg>
