<svg xmlns="http://www.w3.org/2000/svg" width="121" height="41" viewBox="0 0 121 41">
    <g fill="none" fill-rule="evenodd">
        <g fill-rule="nonzero">
            <g>
                <g>
                    <g>
                        <g>
                            <g>
                                <path fill="#A6A6A6" d="M110.135 0H9.535c-.367 0-.73 0-1.095.002-.306.002-.61.008-.919.013C6.85.023 6.18.082 5.517.19c-.661.113-1.302.324-1.9.627-.599.306-1.145.704-1.62 1.18-.477.473-.875 1.02-1.178 1.62-.304.6-.514 1.24-.625 1.903-.111.662-.17 1.332-.179 2.002-.01.307-.01.615-.015.921V31.56c.005.31.006.61.015.921.008.671.068 1.34.18 2.002.11.663.32 1.306.624 1.905.303.598.701 1.143 1.179 1.614.473.477 1.02.875 1.618 1.179.599.304 1.24.517 1.901.63.663.11 1.333.168 2.004.177.31.007.613.011.919.011.366.002.728.002 1.095.002h100.6c.36 0 .724 0 1.084-.002.304 0 .617-.004.922-.01.67-.01 1.338-.068 2-.178.663-.114 1.307-.327 1.908-.63.598-.304 1.144-.702 1.617-1.179.476-.473.875-1.018 1.182-1.614.302-.6.51-1.242.619-1.905.111-.661.173-1.33.185-2.002.004-.31.004-.61.004-.921.008-.364.008-.725.008-1.094V9.536c0-.366 0-.73-.008-1.092 0-.306 0-.614-.004-.92-.012-.672-.074-1.34-.185-2.003-.109-.662-.318-1.303-.62-1.903-.617-1.203-1.595-2.182-2.798-2.8-.601-.302-1.245-.514-1.908-.627-.661-.11-1.33-.169-2-.176-.305-.005-.618-.011-.922-.013-.36-.002-.725-.002-1.084-.002z" transform="translate(-930 -3079) translate(768 2853) translate(86 70.5) translate(76.5 156)"/>
                                <path fill="#000" d="M8.445 39.125c-.305 0-.602-.004-.904-.01-.627-.009-1.251-.063-1.87-.164-.576-.1-1.134-.284-1.656-.548-.517-.261-.99-.605-1.397-1.016-.414-.407-.76-.879-1.02-1.397-.265-.521-.449-1.08-.544-1.657-.103-.62-.158-1.247-.166-1.875-.007-.21-.015-.913-.015-.913v-23.1s.009-.692.015-.895c.007-.628.063-1.253.165-1.872.096-.579.279-1.14.544-1.662.26-.518.603-.99 1.015-1.398.41-.412.884-.757 1.402-1.023.52-.263 1.078-.446 1.653-.544C6.287.95 6.915.895 7.543.887l.902-.012h102.769l.913.013c.623.007 1.244.061 1.858.162.581.099 1.145.284 1.671.548 1.038.535 1.883 1.381 2.415 2.42.26.52.441 1.076.535 1.649.104.624.162 1.255.174 1.887.003.283.003.588.003.89.008.375.008.732.008 1.092v20.929c0 .363 0 .718-.008 1.075 0 .325 0 .623-.004.93-.011.62-.069 1.24-.17 1.853-.094.581-.276 1.145-.54 1.67-.264.513-.607.98-1.016 1.386-.409.414-.881.759-1.4 1.022-.525.266-1.087.452-1.668.55-.618.101-1.243.156-1.869.163-.293.007-.6.011-.897.011l-1.084.002-101.69-.002z" transform="translate(-930 -3079) translate(768 2853) translate(86 70.5) translate(76.5 156)"/>
                            </g>
                            <g fill="#FFF">
                                <g>
                                    <path d="M15.769 12.3c.022-1.696.911-3.263 2.356-4.151-.915-1.308-2.395-2.108-3.99-2.158-1.68-.176-3.308 1.005-4.164 1.005-.872 0-2.19-.988-3.608-.958-1.867.06-3.565 1.096-4.473 2.727-1.934 3.349-.491 8.27 1.361 10.977.927 1.325 2.01 2.805 3.428 2.753 1.387-.058 1.905-.885 3.58-.885 1.658 0 2.144.885 3.59.852 1.489-.025 2.426-1.332 3.32-2.67.667-.944 1.18-1.988 1.52-3.092-1.769-.748-2.918-2.48-2.92-4.4zM13.037 4.21c.812-.973 1.212-2.225 1.115-3.49-1.24.13-2.385.723-3.208 1.66-.812.924-1.223 2.133-1.144 3.361 1.257.013 2.45-.55 3.237-1.53z" transform="translate(-930 -3079) translate(768 2853) translate(86 70.5) translate(76.5 156) translate(9 8)"/>
                                </g>
                                <g>
                                    <path d="M8.302 10.14H3.57l-1.137 3.356H.427L4.911 1.078h2.083l4.483 12.418H9.438L8.302 10.14zM4.06 8.59h3.752l-1.85-5.446H5.91L4.06 8.59zM21.16 8.97c0 2.813-1.506 4.62-3.779 4.62-1.174.062-2.28-.553-2.848-1.583h-.043v4.484H12.63V4.442h1.8v1.506h.033c.593-1.024 1.7-1.638 2.883-1.6 2.298 0 3.813 1.816 3.813 4.622zm-1.91 0c0-1.833-.948-3.038-2.393-3.038-1.42 0-2.375 1.23-2.375 3.038 0 1.824.955 3.046 2.375 3.046 1.445 0 2.393-1.197 2.393-3.046zM31.125 8.97c0 2.813-1.506 4.62-3.779 4.62-1.174.062-2.28-.553-2.848-1.583h-.043v4.484h-1.859V4.442h1.799v1.506h.034c.593-1.024 1.7-1.638 2.883-1.6 2.298 0 3.813 1.816 3.813 4.622zm-1.91 0c0-1.833-.948-3.038-2.393-3.038-1.42 0-2.375 1.23-2.375 3.038 0 1.824.955 3.046 2.375 3.046 1.445 0 2.392-1.197 2.392-3.046zM37.71 10.036c.138 1.232 1.334 2.04 2.97 2.04 1.566 0 2.693-.808 2.693-1.919 0-.964-.68-1.54-2.29-1.936l-1.609-.388c-2.28-.55-3.339-1.617-3.339-3.348 0-2.142 1.867-3.614 4.519-3.614 2.624 0 4.423 1.472 4.483 3.614h-1.876c-.112-1.239-1.136-1.987-2.634-1.987-1.497 0-2.521.757-2.521 1.858 0 .878.654 1.395 2.255 1.79l1.368.336c2.548.603 3.606 1.626 3.606 3.443 0 2.323-1.85 3.778-4.794 3.778-2.753 0-4.613-1.42-4.733-3.667h1.902zM49.346 2.3v2.142h1.722v1.472h-1.722v4.991c0 .776.345 1.137 1.102 1.137.204-.004.408-.018.611-.043v1.463c-.34.063-.686.092-1.032.086-1.833 0-2.548-.689-2.548-2.445V5.914h-1.316V4.442h1.316V2.3h1.867zM52.065 8.97c0-2.849 1.678-4.639 4.294-4.639 2.625 0 4.295 1.79 4.295 4.639 0 2.856-1.661 4.638-4.295 4.638-2.633 0-4.294-1.782-4.294-4.638zm6.695 0c0-1.954-.895-3.108-2.401-3.108-1.506 0-2.4 1.162-2.4 3.108 0 1.962.894 3.106 2.4 3.106 1.506 0 2.401-1.144 2.401-3.106zM62.186 4.442h1.773v1.541h.043c.247-.992 1.156-1.674 2.177-1.635.214-.001.428.022.637.069v1.738c-.27-.082-.552-.12-.835-.112-.546-.022-1.075.196-1.447.596-.373.4-.551.944-.49 1.487v5.37h-1.858V4.442zM75.384 10.837c-.25 1.643-1.85 2.771-3.898 2.771-2.634 0-4.269-1.764-4.269-4.595 0-2.84 1.644-4.682 4.19-4.682 2.506 0 4.08 1.72 4.08 4.466v.637h-6.394v.112c-.06.674.173 1.341.64 1.832.465.49 1.12.757 1.796.732.902.085 1.752-.433 2.09-1.273h1.765zm-6.282-2.702h4.526c.034-.606-.186-1.198-.608-1.634-.421-.437-1.006-.677-1.612-.664-.612-.004-1.199.237-1.632.668-.433.432-.676 1.019-.674 1.63z" transform="translate(-930 -3079) translate(768 2853) translate(86 70.5) translate(76.5 156) translate(9 8) translate(25 9)"/>
                                </g>
                            </g>
                        </g>
                        <g fill="#FFF">
                            <path d="M1.738 3.253h.798c.278.035.557-.048.771-.229.214-.18.342-.442.354-.722 0-.55-.414-.906-1.116-.906-.284-.04-.573.038-.8.214-.226.176-.372.436-.404.721H.465c.03-.518.275-1 .674-1.331.4-.331.92-.48 1.434-.414 1.175 0 2.002.658 2.002 1.604.006.654-.446 1.223-1.084 1.365v.07c.764.034 1.357.68 1.327 1.443-.054.533-.322 1.022-.741 1.356-.42.334-.955.484-1.487.418-.533.073-1.073-.074-1.495-.407-.423-.333-.692-.823-.746-1.358h.89c.053.57.577.939 1.35.939.774 0 1.28-.414 1.28-.997 0-.591-.476-.955-1.307-.955h-.824v-.81zM5.83 5.424c0-.81.604-1.278 1.674-1.344l1.22-.07V3.62c0-.475-.314-.744-.922-.744-.496 0-.84.182-.939.5h-.86c.09-.773.82-1.27 1.84-1.27 1.13 0 1.766.563 1.766 1.514v3.077h-.856v-.633h-.07c-.29.462-.808.732-1.353.707-.382.04-.763-.084-1.05-.34-.285-.258-.45-.623-.45-1.008zm2.894-.384v-.377l-1.1.07c-.62.042-.901.253-.901.65 0 .405.351.64.835.64.286.03.572-.059.791-.244.22-.186.355-.452.375-.74zM11.968 2.943L11.968 6.698 11.079 6.698 11.079 2.195 14.044 2.195 14.044 2.943zM19.43 4.444c0 1.431-.724 2.328-1.86 2.328-.57.039-1.11-.256-1.386-.756h-.07v2.179h-.89v-6h.856v.744h.067c.28-.517.826-.833 1.414-.819 1.145 0 1.869.893 1.869 2.324zm-.914 0c0-.95-.45-1.526-1.203-1.526-.748 0-1.216.587-1.216 1.53 0 .939.467 1.526 1.212 1.526.756 0 1.207-.575 1.207-1.53zM20.613 8.31v-.765c.096.013.193.018.29.017.392.03.743-.242.815-.628l.066-.22-1.63-4.52h.968l1.129 3.577h.07l1.125-3.576h.943L22.71 6.884c-.385 1.095-.81 1.447-1.729 1.447-.074 0-.285-.008-.368-.02zM25.081 5.42h.885c.087.397.459.604.98.604.591 0 .954-.26.954-.666 0-.434-.326-.641-.955-.641h-.674v-.69h.663c.537 0 .81-.207.81-.584 0-.33-.264-.583-.81-.583-.497 0-.86.211-.918.567h-.857c.133-.85.923-1.436 1.775-1.32 1.07 0 1.682.485 1.682 1.246.01.436-.286.82-.71.921v.07c.507.066.886.502.88 1.014 0 .856-.728 1.422-1.84 1.422-.984 0-1.783-.45-1.865-1.36zM30.066 6.698L30.066 2.195 30.947 2.195 30.947 5.292 31.017 5.292 33.092 2.195 33.973 2.195 33.973 6.698 33.092 6.698 33.092 3.584 33.026 3.584 30.947 6.698zM38.826 2.943L37.408 2.943 37.408 6.698 36.518 6.698 36.518 2.943 35.1 2.943 35.1 2.195 38.826 2.195zM43.613 5.482c-.25.85-1.072 1.398-1.952 1.303-.6.016-1.178-.233-1.578-.68-.401-.449-.585-1.05-.502-1.645-.08-.596.103-1.198.5-1.65.4-.45.974-.707 1.576-.702 1.253 0 2.01.856 2.01 2.27v.31h-3.18v.05c-.029.334.085.665.314.91.228.246.55.384.885.38.435.052.857-.164 1.07-.546h.857zM40.487 4.03h2.273c.023-.306-.084-.607-.295-.829-.211-.222-.506-.345-.812-.338-.31-.004-.61.118-.83.337-.22.22-.34.52-.336.83zM47.38 2.195h2.03c.882 0 1.398.446 1.398 1.145.003.457-.314.853-.76.951v.07c.546.035.969.491.962 1.038 0 .786-.59 1.299-1.579 1.299h-2.05V2.195zm.881.682v1.166h.881c.537 0 .794-.207.794-.587 0-.352-.224-.58-.695-.58h-.98zm0 1.82v1.319h1.054c.525 0 .807-.232.807-.658 0-.45-.319-.662-.918-.662h-.943z" transform="translate(-930 -3079) translate(768 2853) translate(86 70.5) translate(76.5 156) translate(35 8)"/>
                        </g>
                    </g>
                </g>
            </g>
        </g>
    </g>
</svg>
