<?xml version="1.0" encoding="UTF-8"?>
<svg width="234px" height="35px" viewBox="0 0 234 35" version="1.1" xmlns="http://www.w3.org/2000/svg" xmlns:xlink="http://www.w3.org/1999/xlink">
    <!-- Generator: Sketch 54.1 (76490) - https://sketchapp.com -->
    <title>ctclove</title>
    <desc>Created with Sketch.</desc>
    <defs>
        <polygon id="path-1" points="0.0663872204 0.17385 20.8486773 0.17385 20.8486773 21.0226 0.0663872204 21.0226"></polygon>
    </defs>
    <g id="REBRAND" stroke="none" stroke-width="1" fill="none" fill-rule="evenodd">
        <g id="main(1920)-copy-10" transform="translate(-133.000000, -40.000000)">
            <g id="ctclove" transform="translate(133.000000, 40.000000)">
                <polygon id="Fill-1" fill="#FFFFFF" points="91.089322 34.161675 91.089322 3.139925 98.687469 3.139925 98.687469 27.292675 107.99115 27.292675 107.99115 34.161675"></polygon>
                <g id="Group-25" transform="translate(0.000000, 0.076250)">
                    <path d="M131.023727,12.3481 C129.40342,10.67935 127.283216,9.84385 124.662117,9.84385 C122.041018,9.84385 119.920564,10.67935 118.301254,12.3481 C116.680948,14.01735 115.871542,16.0931 115.871542,18.57435 C115.871542,21.1161 116.680948,23.2131 118.301254,24.86785 C119.920564,26.5226 122.041018,27.3491 124.662117,27.3491 C127.283216,27.3491 129.40342,26.5226 131.023727,24.86785 C132.642289,23.2131 133.45344,21.1161 133.45344,18.57435 C133.45344,16.0931 132.642289,14.01735 131.023727,12.3481 M136.611817,30.1636 C133.652053,33.22135 129.668072,34.74985 124.662117,34.74985 C119.655165,34.74985 115.672679,33.22135 112.712916,30.1636 C109.753401,27.1056 108.273644,23.2431 108.273644,18.57435 C108.273644,13.9366 109.753401,10.08085 112.712916,7.00835 C115.672679,3.93585 119.655165,2.3991 124.662117,2.3991 C129.668072,2.3991 133.652053,3.93585 136.611817,7.00835 C139.571331,10.08085 141.051337,13.9366 141.051337,18.57435 C141.051337,23.2431 139.571331,27.1056 136.611817,30.1636" id="Fill-2" fill="#FFFFFF"></path>
                    <polygon id="Fill-4" fill="#FFFFFF" points="150.959456 34.085425 139.959462 3.063675 147.955085 3.063675 155.28858 24.734425 162.709545 3.063675 170.661558 3.063675 159.706171 34.085425"></polygon>
                    <polygon id="Fill-6" fill="#FFFFFF" points="190.006056 27.394 190.006056 34.0855 172.282612 34.0855 172.282612 3.06375 189.87373 3.06375 189.87373 9.79975 179.88051 9.79975 179.88051 15.16225 189.569705 15.16225 189.569705 21.54375 179.88051 21.54375 179.88051 27.394"></polygon>
                    <polygon id="Fill-8" fill="#FFDD00" points="53.6943029 2.636675 53.6943029 10.216675 47.1742006 10.216675 47.1742006 34.059425 39.6184179 34.059425 39.6184179 10.216675 33.1010569 10.216675 33.1010569 2.636675"></polygon>
                    <path d="M86.4125367,22.1987 C84.7805176,29.2577 78.469246,34.51995 70.935393,34.51995 C62.1595208,34.51995 55.0433291,27.38345 55.0433291,18.57945 C55.0433291,9.7757 62.1595208,2.6367 70.935393,2.6367 C78.3483834,2.6367 84.5744281,7.73045 86.3300511,14.6187 L78.0929521,14.6187 C76.7026581,12.09095 74.018262,10.37945 70.935393,10.37945 C66.4211118,10.37945 62.7613419,14.0507 62.7613419,18.57945 C62.7613419,23.10845 66.4211118,26.77995 70.935393,26.77995 C74.1555719,26.77995 76.938901,24.9137 78.2716294,22.1987 L86.4125367,22.1987 Z" id="Fill-10" fill="#FFDD00"></path>
                    <path d="M31.3692326,22.1987 C29.7372134,29.2577 23.4259419,34.51995 15.8920888,34.51995 C7.11621661,34.51995 2.49201278e-05,27.38345 2.49201278e-05,18.57945 C2.49201278e-05,9.7757 7.11621661,2.6367 15.8920888,2.6367 C23.3050792,2.6367 29.531124,7.73045 31.286747,14.6187 L23.0493987,14.6187 C21.659354,12.09095 18.9749578,10.37945 15.8920888,10.37945 C11.3778077,10.37945 7.7180377,14.0507 7.7180377,18.57945 C7.7180377,23.10845 11.3778077,26.77995 15.8920888,26.77995 C19.1122677,26.77995 21.8955968,24.9137 23.228076,22.1987 L31.3692326,22.1987 Z" id="Fill-12" fill="#FFDD00"></path>
                    <g id="Group-12" transform="translate(194.066387, 0.173850)" fill="#FFDD00">
                        <polygon id="Fill-14" points="3.75982939 18.03265 11.9573054 26.2564 20.1542831 34.4799 28.3517591 26.2564 20.1545323 18.03265 11.9573054 9.80915"></polygon>
                        <polygon id="Fill-16" points="36.5779681 18.03265 28.380492 26.2564 20.1835144 34.4799 11.9860383 26.2564 20.1835144 18.03265 28.380492 9.80915"></polygon>
                        <path d="M21.2898185,10.42425 C21.2898185,4.66725 16.6374799,0 10.8986236,0 C5.15951821,0 0.507428754,4.66725 0.507428754,10.42425 C0.507428754,16.1815 5.15951821,20.84875 10.8986236,20.84875 C16.6374799,20.84875 21.2898185,16.1815 21.2898185,10.42425" id="Fill-18"></path>
                        <path d="M39.8494824,10.42425 C39.8494824,4.66725 35.1971438,0 29.4582875,0 C23.7191821,0 19.0670927,4.66725 19.0670927,10.42425 C19.0670927,16.1815 23.7191821,20.84875 29.4582875,20.84875 C35.1971438,20.84875 39.8494824,16.1815 39.8494824,10.42425" id="Fill-20"></path>
                        <path d="M30.5458019,16.25775 C30.5458019,10.5005 25.8934633,5.83325 20.1548562,5.83325 C14.4157508,5.83325 9.76341214,10.5005 9.76341214,16.25775 C9.76341214,22.015 14.4157508,26.68225 20.1548562,26.68225 C25.8934633,26.68225 30.5458019,22.015 30.5458019,16.25775" id="Fill-23"></path>
                    </g>
                    <g id="Group-22" transform="translate(213.067093, 0.000000)">
                        <mask id="mask-2" fill="white">
                            <use xlink:href="#path-1"></use>
                        </mask>
                        <g id="Clip-21"></g>
                    </g>
                </g>
            </g>
        </g>
    </g>
</svg>