<svg xmlns="http://www.w3.org/2000/svg" width="92" height="32" viewBox="0 0 92 32">
    <g fill="none" fill-rule="evenodd">
        <g fill="#FFD444" fill-rule="nonzero">
            <g>
                <g>
                    <g>
                        <g>
                            <path d="M34.391.082L34.391 7.447 41.755 7.447 41.755 31.996 49.12 31.996 49.12 7.447 56.485 7.447 56.485.082 34.391.082M23.743 19.721c-1.38 2.903-4.337 4.91-7.764 4.91-4.746 0-8.593-3.847-8.593-8.592 0-4.746 3.847-8.592 8.593-8.592 3.427 0 6.385 2.007 7.764 4.91h7.765C29.845 5.318 23.524.081 15.978.081 7.167.082.023 7.226.023 16.039s7.144 15.957 15.957 15.957c7.545 0 13.866-5.237 15.529-12.275h-7.765M82.661 19.721c-1.379 2.903-4.337 4.91-7.764 4.91-4.745 0-8.592-3.847-8.592-8.592 0-4.746 3.847-8.592 8.592-8.592 3.427 0 6.385 2.007 7.764 4.91h7.765C88.763 5.318 82.442.081 74.896.081c-8.812 0-15.956 7.144-15.956 15.957s7.144 15.957 15.957 15.957c7.545 0 13.866-5.237 15.53-12.275H82.66" transform="translate(-765 -855) translate(515 765.5) translate(86 89.5) translate(164) translate(.615)"/>
                        </g>
                    </g>
                </g>
            </g>
        </g>
    </g>
</svg>
