<svg xmlns="http://www.w3.org/2000/svg" width="56" height="57" viewBox="0 0 56 57">
    <g fill="none" fill-rule="evenodd">
        <g>
            <g>
                <g>
                    <g>
                        <g>
                            <path fill="#8F8F8F" d="M26.834 25.667c.96 0 1.75.781 1.75 1.76 0 .98-.79 1.74-1.75 1.74-.982 0-1.75-.761-1.75-1.74 0-.978.768-1.76 1.75-1.76zm0-16.334c1.288 0 2.333 1.072 2.333 2.395v.158c0 .06-.003.119-.006.175l-.816 11.4c-.042.587-.518 1.039-1.09 1.039h-.842c-.573 0-1.048-.452-1.091-1.039l-.815-11.4c-.004-.06-.007-.115-.007-.175v-.158c0-1.323 1.044-2.395 2.333-2.395z" transform="translate(-4597 -2073) translate(4329 1979) translate(86 94.5) translate(182) translate(.583 8.167)"/>
                            <path stroke="#979797" stroke-width="3" d="M26.833 1.5c9.577 0 19.133 3.798 25.89 10.71h0L26.865 38.152 2.12 12.365C8.862 5.311 17.276 1.5 26.833 1.5z" transform="translate(-4597 -2073) translate(4329 1979) translate(86 94.5) translate(182) translate(.583 8.167)"/>
                        </g>
                    </g>
                </g>
            </g>
        </g>
    </g>
</svg>
