<svg xmlns="http://www.w3.org/2000/svg" xmlns:xlink="http://www.w3.org/1999/xlink" width="135" height="41" viewBox="0 0 135 41">
    <defs>
        <linearGradient id="kf17cafrsb" x1="80.748%" x2="-157.307%" y1="49.998%" y2="49.998%">
            <stop offset="0%" stop-color="#EC942D"/>
            <stop offset="100%" stop-color="#FBDE1E"/>
        </linearGradient>
        <linearGradient id="rjjbzxxjqe" x1="86.245%" x2="-50.14%" y1="30.902%" y2="136.012%">
            <stop offset="0%" stop-color="#DD4245"/>
            <stop offset="100%" stop-color="#B72162"/>
        </linearGradient>
        <linearGradient id="6aa44lvxkh" x1="-50.749%" x2="60.607%" y1="-36.482%" y2="49.339%">
            <stop offset="0%" stop-color="#6CB966"/>
            <stop offset="100%" stop-color="#299567"/>
        </linearGradient>
        <path id="nlntcp73aa" d="M5.013 9.274L.888 5.146v-.292L5.015.727l4.982 2.83c1.396.794 1.396 2.092 0 2.885L5.108 9.22l-.095.054"/>
        <path id="h966uz770d" d="M17.108 4.22L12.888 0 .435 12.453c.461.487 1.221.547 2.077.061L17.108 4.22"/>
        <path id="1q0cvxrnpg" d="M17.108 8.78L2.512.486C1.656 0 .896.06.435.547L12.888 13l4.22-4.22"/>
    </defs>
    <g fill="none" fill-rule="evenodd">
        <g>
            <g>
                <g>
                    <g>
                        <path fill="#0A0B09" d="M130 40H5c-2.75 0-5-2.25-5-5V5c0-2.75 2.25-5 5-5h125c2.75 0 5 2.25 5 5v30c0 2.75-2.25 5-5 5" transform="translate(-997 -2640) translate(768 2416) translate(86 72.5) translate(143 152)"/>
                        <path fill="#9E9F9B" d="M130 0H5C2.25 0 0 2.25 0 5v30c0 2.75 2.25 5 5 5h125c2.75 0 5-2.25 5-5V5c0-2.75-2.25-5-5-5zm0 .8c2.316 0 4.2 1.884 4.2 4.2v30c0 2.316-1.884 4.2-4.2 4.2H5C2.684 39.2.8 37.316.8 35V5C.8 2.684 2.684.8 5 .8h125z" transform="translate(-997 -2640) translate(768 2416) translate(86 72.5) translate(143 152)"/>
                        <path fill="#FFFFFE" d="M106.936 30h1.866V17.499h-1.866V30zm16.807-7.998l-2.139 5.42h-.064l-2.22-5.42h-2.01l3.329 7.575-1.898 4.214h1.947l5.13-11.789h-2.075zm-10.582 6.578c-.612 0-1.464-.305-1.464-1.061 0-.965 1.062-1.335 1.978-1.335.821 0 1.206.177 1.705.418-.145 1.158-1.142 1.978-2.219 1.978zm.225-6.851c-1.351 0-2.75.595-3.329 1.914l1.656.691c.354-.691 1.013-.917 1.705-.917.965 0 1.946.579 1.962 1.609v.128c-.338-.193-1.061-.482-1.946-.482-1.785 0-3.603.981-3.603 2.814 0 1.673 1.464 2.751 3.104 2.751 1.255 0 1.946-.563 2.381-1.223h.064v.965h1.801v-4.792c0-2.22-1.656-3.458-3.795-3.458zm-11.532 1.795H99.2v-4.285h2.654c1.395 0 2.187 1.155 2.187 2.142 0 .969-.792 2.143-2.187 2.143zm-.048-6.025h-4.471V30H99.2v-4.736h2.606c2.068 0 4.101-1.498 4.101-3.883s-2.033-3.882-4.101-3.882zM77.425 28.582c-1.289 0-2.368-1.079-2.368-2.561 0-1.498 1.079-2.594 2.368-2.594 1.273 0 2.271 1.096 2.271 2.594 0 1.482-.998 2.561-2.271 2.561zm2.142-5.88h-.064c-.419-.499-1.224-.95-2.239-.95-2.127 0-4.076 1.868-4.076 4.269 0 2.384 1.949 4.237 4.076 4.237 1.015 0 1.82-.451 2.239-.967h.064v.612c0 1.628-.869 2.498-2.271 2.498-1.144 0-1.853-.822-2.143-1.515l-1.627.677c.467 1.128 1.708 2.513 3.77 2.513 2.191 0 4.044-1.289 4.044-4.43v-7.637h-1.773v.693zM82.629 30h1.869V17.498h-1.869V30zm4.623-4.124c-.048-1.643 1.273-2.481 2.223-2.481.742 0 1.37.37 1.579.902l-3.802 1.579zm5.8-1.418c-.354-.95-1.434-2.706-3.641-2.706-2.191 0-4.011 1.723-4.011 4.253 0 2.384 1.804 4.253 4.22 4.253 1.95 0 3.078-1.192 3.545-1.885l-1.45-.967c-.483.709-1.144 1.176-2.095 1.176-.95 0-1.627-.435-2.062-1.288l5.687-2.352-.193-.484zm-45.308-1.401v1.804h4.317c-.129 1.015-.467 1.756-.982 2.272-.629.628-1.612 1.32-3.335 1.32-2.658 0-4.737-2.142-4.737-4.8 0-2.659 2.079-4.801 4.737-4.801 1.434 0 2.481.564 3.254 1.289l1.273-1.273c-1.08-1.031-2.513-1.821-4.527-1.821-3.641 0-6.702 2.965-6.702 6.606s3.061 6.605 6.702 6.605c1.965 0 3.447-.644 4.607-1.853 1.192-1.192 1.563-2.867 1.563-4.221 0-.419-.032-.805-.097-1.127h-6.073zm11.079 5.525c-1.289 0-2.401-1.063-2.401-2.577 0-1.531 1.112-2.578 2.401-2.578 1.288 0 2.4 1.047 2.4 2.578 0 1.514-1.112 2.577-2.4 2.577zm0-6.83c-2.353 0-4.27 1.788-4.27 4.253 0 2.448 1.917 4.253 4.27 4.253 2.352 0 4.269-1.805 4.269-4.253 0-2.465-1.917-4.253-4.269-4.253zm9.313 6.83c-1.289 0-2.401-1.063-2.401-2.577 0-1.531 1.112-2.578 2.401-2.578 1.289 0 2.4 1.047 2.4 2.578 0 1.514-1.111 2.577-2.4 2.577zm0-6.83c-2.352 0-4.269 1.788-4.269 4.253 0 2.448 1.917 4.253 4.269 4.253 2.352 0 4.269-1.805 4.269-4.253 0-2.465-1.917-4.253-4.269-4.253z" transform="translate(-997 -2640) translate(768 2416) translate(86 72.5) translate(143 152)"/>
                        <path fill="#60C2E3" d="M10.435 7.547c-.291.308-.462.785-.462 1.404v22.098c0 .619.171 1.096.462 1.404l.074.072 12.379-12.379v-.292L10.509 7.475l-.074.072" transform="translate(-997 -2640) translate(768 2416) translate(86 72.5) translate(143 152)"/>
                        <g transform="translate(-997 -2640) translate(768 2416) translate(86 72.5) translate(143 152) translate(22 15)">
                            <mask id="jh90duhrcc" fill="#fff">
                                <use xlink:href="#nlntcp73aa"/>
                            </mask>
                            <path fill="url(#kf17cafrsb)" d="M5.013 9.274L.888 5.146v-.292L5.015.727l4.982 2.83c1.396.794 1.396 2.092 0 2.885L5.108 9.22l-.095.054" mask="url(#jh90duhrcc)"/>
                        </g>
                        <g transform="translate(-997 -2640) translate(768 2416) translate(86 72.5) translate(143 152) translate(10 20)">
                            <mask id="ykfkvrxs8f" fill="#fff">
                                <use xlink:href="#h966uz770d"/>
                            </mask>
                            <path fill="url(#rjjbzxxjqe)" d="M17.108 4.22L12.888 0 .435 12.453c.461.487 1.221.547 2.077.061L17.108 4.22" mask="url(#ykfkvrxs8f)"/>
                        </g>
                        <g transform="translate(-997 -2640) translate(768 2416) translate(86 72.5) translate(143 152) translate(10 7)">
                            <mask id="dabz3ao2ki" fill="#fff">
                                <use xlink:href="#1q0cvxrnpg"/>
                            </mask>
                            <path fill="url(#6aa44lvxkh)" d="M17.108 8.78L2.512.486C1.656 0 .896.06.435.547L12.888 13l4.22-4.22" mask="url(#dabz3ao2ki)"/>
                        </g>
                        <path fill="#FFFFFE" d="M43.497 9.967c.011.949-.179 1.715-.57 2.296h3.033V7.737h-2.463v2.23zm-1.383 4.306h-.737v-2.01h.586c.52-.448.774-1.213.763-2.296V7h4.006v5.263h.67v2.01h-.737V13h-4.551v1.273z" transform="translate(-997 -2640) translate(768 2416) translate(86 72.5) translate(143 152)"/>
                        <path fill="#FFFFFE" d="M43.497 9.967l-.1.001v.081c0 .898-.188 1.615-.553 2.158l-.105.156h3.321V7.637h-2.663v2.331l.1-.001h.1v-2.13h2.263v4.326h-2.933v.1l.083.056c.394-.586.587-1.345.587-2.27v-.083l-.1.001h.1-.1zm-1.383 4.306v-.1h-.637v-1.81h.524l.028-.024c.54-.467.798-1.244.797-2.307v-.066.001V7.1h3.806v5.263h.67v1.81h-.538V12.9h-4.75v1.373h.1v-.1.1h.1V13.1h4.35v1.273h.938v-2.21h-.67V6.9h-4.206v3.132c0 1.035-.25 1.745-.728 2.155l.065.076v-.1h-.686v2.21h.937v-.1h-.1zM49.585 11.722c.444.45.987.674 1.629.674.643 0 1.187-.224 1.63-.674.445-.45.667-1.024.667-1.722s-.222-1.272-.667-1.722c-.443-.45-.987-.674-1.63-.674-.642 0-1.185.224-1.629.674-.444.45-.666 1.024-.666 1.722s.222 1.272.666 1.722zm3.83.503c-.59.606-1.324.909-2.201.909s-1.61-.303-2.199-.909c-.59-.606-.884-1.348-.884-2.225s.294-1.619.884-2.225c.589-.606 1.322-.909 2.199-.909.872 0 1.604.304 2.197.913.591.609.887 1.349.887 2.221 0 .877-.295 1.619-.883 2.225z" transform="translate(-997 -2640) translate(768 2416) translate(86 72.5) translate(143 152)"/>
                        <path fill="#FFFFFE" d="M49.585 11.722l-.072.07c.461.468 1.036.706 1.701.705.666.001 1.242-.237 1.701-.705.464-.467.697-1.073.696-1.792.001-.719-.232-1.324-.696-1.792-.459-.468-1.035-.705-1.701-.704-.665-.001-1.24.236-1.701.704-.462.468-.695 1.073-.694 1.792-.001.719.232 1.325.694 1.792l.143-.14c-.425-.431-.637-.975-.637-1.652 0-.677.212-1.221.637-1.652.428-.432.939-.643 1.558-.644.62.001 1.132.212 1.559.644l.002.002-.002-.002c.425.432.637.975.638 1.652-.001.677-.213 1.22-.638 1.652-.427.432-.939.644-1.559.645-.619-.002-1.13-.213-1.558-.645l-.071.07zm3.83.503l-.072-.07c-.573.588-1.275.878-2.129.879-.854-.001-1.555-.291-2.127-.879-.572-.589-.855-1.3-.856-2.155.001-.855.284-1.566.856-2.155.572-.588 1.273-.878 2.127-.879.849.001 1.549.293 2.125.883.574.592.858 1.302.859 2.151-.001.855-.284 1.566-.855 2.155l.072.07.071.069c.607-.622.913-1.395.912-2.294.001-.894-.306-1.665-.916-2.29-.609-.628-1.372-.945-2.268-.944-.899-.001-1.665.315-2.271.94h.001c-.608.623-.914 1.395-.913 2.294-.001.899.305 1.672.913 2.294h-.001c.606.626 1.372.941 2.271.94.9.001 1.666-.314 2.272-.94l-.071-.069zM58.179 13.134c-.883 0-1.623-.299-2.22-.897-.599-.597-.897-1.343-.897-2.237 0-.894.298-1.64.897-2.237.597-.598 1.337-.897 2.22-.897.905 0 1.64.326 2.204.98l-.537.52c-.407-.509-.964-.762-1.667-.762-.654 0-1.206.22-1.655.662-.45.441-.675 1.019-.675 1.734 0 .715.225 1.294.675 1.734.449.442 1.001.662 1.655.662.721 0 1.335-.29 1.844-.871l.536.537c-.274.329-.617.59-1.031.783-.413.193-.863.289-1.349.289" transform="translate(-997 -2640) translate(768 2416) translate(86 72.5) translate(143 152)"/>
                        <path fill="#FFFFFE" d="M58.179 13.134v-.1c-.86-.001-1.569-.288-2.15-.867-.58-.581-.866-1.296-.867-2.167.001-.871.287-1.586.867-2.167.581-.579 1.29-.866 2.15-.867.881.001 1.581.313 2.129.946l.075-.066-.069-.072-.537.52.069.072.078-.062c-.424-.533-1.018-.802-1.745-.8-.676-.001-1.259.231-1.725.69-.471.46-.706 1.071-.705 1.806-.001.735.234 1.346.705 1.806.466.459 1.049.691 1.725.691.748.001 1.396-.306 1.919-.906l-.075-.066-.071.071.536.536.071-.07-.077-.064c-.265.318-.594.569-.996.756-.4.187-.835.28-1.307.28v.2c.499 0 .964-.099 1.391-.299.426-.198.782-.468 1.066-.81l.058-.07-.676-.676-.07.08c-.495.563-1.076.836-1.769.838-.632-.001-1.153-.21-1.585-.634-.43-.422-.644-.968-.645-1.663.001-.694.215-1.24.645-1.663.432-.424.953-.632 1.585-.633.68.001 1.199.24 1.589.725l.069.085.616-.596.068-.066-.062-.071c-.581-.675-1.352-1.017-2.28-1.015-.905-.001-1.677.31-2.291.926-.617.615-.927 1.392-.926 2.308-.001.916.309 1.693.926 2.308.614.616 1.386.927 2.291.926v-.1M63.677 13L62.906 13 62.906 7.737 61.23 7.737 61.23 7 65.353 7 65.353 7.737 63.677 7.737 63.677 13" transform="translate(-997 -2640) translate(768 2416) translate(86 72.5) translate(143 152)"/>
                        <path fill="#FFFFFE" d="M63.677 13L63.677 12.9 63.006 12.9 63.006 7.637 61.33 7.637 61.33 7.1 65.253 7.1 65.253 7.637 63.577 7.637 63.577 13 63.677 13 63.677 12.9 63.677 13 63.777 13 63.777 7.837 65.453 7.837 65.453 6.9 61.13 6.9 61.13 7.837 62.806 7.837 62.806 13.1 63.777 13.1 63.777 13 63.677 13M70.646 7l-2.27 5.062c-.313.714-.779 1.072-1.399 1.072-.184 0-.383-.045-.596-.134l.201-.712c.129.072.263.108.403.108.179 0 .317-.034.415-.104.098-.07.188-.197.272-.381l.218-.478L65.871 7h.905l1.483 3.444h.033L69.741 7h.905" transform="translate(-997 -2640) translate(768 2416) translate(86 72.5) translate(143 152)"/>
                        <path fill="#FFFFFE" d="M70.646 7l-.091-.041-2.27 5.062h-.001c-.308.694-.73 1.01-1.307 1.013-.168 0-.354-.041-.557-.126l-.039.092.097.027.201-.712-.097-.027-.049.087c.143.08.295.122.452.122.191-.001.351-.037.473-.124.12-.087.217-.228.305-.421l.237-.519L66.026 7.1h.684l1.483 3.444h.165l1.45-3.444h.838V7l-.091-.041.091.041v-.1h-.971L68.2 10.406l.092.038v-.1h-.033v.1l.092-.039L66.842 6.9h-1.127l2.065 4.533-.199.436c-.079.176-.164.289-.239.342-.073.052-.191.086-.357.086-.122-.001-.238-.032-.353-.096l-.111-.063-.236.835-.024.085.082.034c.222.094.433.142.634.142.663.003 1.172-.396 1.491-1.132l-.001.001L70.801 6.9h-.155V7M71.52 13L71.52 7 75.86 7 75.86 13 75.089 13 75.089 7.737 72.29 7.737 72.29 13 71.52 13" transform="translate(-997 -2640) translate(768 2416) translate(86 72.5) translate(143 152)"/>
                        <path fill="#FFFFFE" d="M71.52 13L71.619 13 71.619 7.1 75.76 7.1 75.76 12.9 75.189 12.9 75.189 7.637 72.19 7.637 72.19 12.9 71.52 12.9 71.52 13 71.619 13 71.52 13 71.52 13.1 72.39 13.1 72.39 7.837 74.989 7.837 74.989 13.1 75.96 13.1 75.96 6.9 71.42 6.9 71.42 13.1 71.52 13.1 71.52 13M77.234 13L77.234 7 78.005 7 78.005 9.572 81.005 9.572 81.005 7 81.776 7 81.776 13 81.005 13 81.005 10.293 78.005 10.293 78.005 13 77.234 13" transform="translate(-997 -2640) translate(768 2416) translate(86 72.5) translate(143 152)"/>
                        <path fill="#FFFFFE" d="M77.234 13L77.334 13 77.334 7.1 77.905 7.1 77.905 9.672 81.105 9.672 81.105 7.1 81.676 7.1 81.676 12.9 81.105 12.9 81.105 10.193 77.905 10.193 77.905 12.9 77.234 12.9 77.234 13 77.334 13 77.234 13 77.234 13.1 78.105 13.1 78.105 10.393 80.905 10.393 80.905 13.1 81.876 13.1 81.876 6.9 80.905 6.9 80.905 9.472 78.105 9.472 78.105 6.9 77.134 6.9 77.134 13.1 77.234 13.1 77.234 13M84.228 11.722c.444.45.987.674 1.629.674.643 0 1.187-.224 1.63-.674.445-.45.667-1.024.667-1.722s-.222-1.272-.667-1.722c-.443-.45-.987-.674-1.63-.674-.642 0-1.185.224-1.629.674-.444.45-.666 1.024-.666 1.722s.222 1.272.666 1.722zm3.83.503c-.59.606-1.324.909-2.201.909s-1.61-.303-2.199-.909c-.59-.606-.884-1.348-.884-2.225s.294-1.619.884-2.225c.589-.606 1.322-.909 2.199-.909.873 0 1.604.304 2.197.913.592.609.887 1.349.887 2.221 0 .877-.295 1.619-.883 2.225z" transform="translate(-997 -2640) translate(768 2416) translate(86 72.5) translate(143 152)"/>
                        <path fill="#FFFFFE" d="M84.228 11.722l-.072.07c.461.468 1.035.706 1.701.705.666.001 1.242-.237 1.702-.705.463-.467.696-1.073.695-1.792.001-.719-.232-1.324-.696-1.792h.001c-.46-.468-1.036-.705-1.702-.704-.666-.001-1.24.236-1.701.704-.462.468-.695 1.073-.694 1.792-.001.719.232 1.325.694 1.792l.143-.14c-.425-.431-.636-.975-.638-1.652.002-.677.213-1.221.638-1.652.428-.432.939-.643 1.558-.644.62.001 1.132.212 1.559.644l.003.003-.003-.003c.425.432.637.975.638 1.652-.001.677-.213 1.22-.638 1.652-.427.432-.939.644-1.559.645-.619-.002-1.13-.213-1.558-.645l-.071.07zm3.83.503l-.072-.07c-.573.588-1.274.878-2.129.879-.854-.001-1.555-.291-2.127-.879l-.003-.003.003.003c-.572-.589-.855-1.3-.856-2.155.001-.855.284-1.566.856-2.155.572-.588 1.273-.878 2.127-.879.849.001 1.549.293 2.125.883.574.592.858 1.302.859 2.151-.001.855-.284 1.566-.855 2.155l.143.139c.607-.622.913-1.395.912-2.294.001-.894-.306-1.665-.916-2.29-.609-.628-1.372-.945-2.268-.944-.9-.001-1.665.315-2.27.94-.608.623-.913 1.395-.913 2.294s.305 1.672.913 2.294c.605.626 1.371.941 2.27.94.9.001 1.666-.314 2.272-.94l-.071-.069zM92.864 12.263h1.551c.296 0 .536-.104.721-.311.184-.206.276-.432.276-.679 0-.245-.095-.47-.285-.674-.189-.203-.439-.306-.746-.306h-1.517v1.97zm0-2.691h1.4c.291 0 .524-.095.7-.289.176-.192.264-.403.264-.632 0-.229-.085-.439-.256-.629-.17-.189-.395-.285-.674-.285h-1.434v1.835zM92.094 13V7h2.17c.469 0 .876.155 1.219.465.344.31.516.7.516 1.169 0 .285-.074.536-.223.754-.147.218-.344.383-.59.495v.033c.295.101.539.274.729.52.189.246.285.531.285.855 0 .491-.18.899-.541 1.223-.36.324-.786.486-1.278.486h-2.287z" transform="translate(-997 -2640) translate(768 2416) translate(86 72.5) translate(143 152)"/>
                        <path fill="#FFFFFE" d="M92.864 12.263v.1h1.551c.319.001.594-.116.795-.344.198-.22.303-.474.302-.746.001-.272-.108-.524-.312-.742-.207-.225-.49-.339-.819-.338h-1.617v2.17h.1v-.1h.1v-1.87h1.417c.286.001.501.092.673.274.176.191.257.387.258.606-.001.221-.08.421-.251.612v.001c-.167.186-.373.275-.646.277h-1.551v.1h.1-.1zm0-2.691v.1h1.4c.312.002.58-.106.774-.321.189-.206.29-.445.29-.7 0-.254-.097-.492-.282-.695-.187-.212-.447-.32-.748-.319h-1.534v2.035h.1v-.1h.1V7.837h1.334c.257.002.447.084.599.252l.001.001-.001-.001c.157.176.23.358.231.562-.001.203-.076.386-.238.565-.158.172-.357.255-.626.256h-1.4v.1h.1-.1zM92.094 13h.1V7.1h2.07c.447.001.825.145 1.152.439.325.295.482.651.483 1.095 0 .268-.069.497-.205.698-.138.203-.319.355-.55.46l-.058.026v.17l.067.023c.279.095.504.255.683.486l.001.001-.001-.002c.176.23.264.49.264.795-.001.467-.167.841-.508 1.148-.344.309-.741.46-1.211.461h-2.287v.1h.1-.1v.1h2.287c.514.001.968-.172 1.345-.512.38-.34.575-.781.574-1.297.001-.344-.103-.654-.306-.916l-.001-.002.001.001c-.201-.26-.463-.447-.776-.553l-.032.095h.1v-.033h-.1l.041.091c.261-.119.475-.296.632-.53.16-.234.24-.508.24-.81.001-.493-.185-.917-.549-1.243l-.002-.002.002.001c-.36-.325-.795-.491-1.286-.49h-2.27v6.2h.1V13z" transform="translate(-997 -2640) translate(768 2416) translate(86 72.5) translate(143 152)"/>
                    </g>
                </g>
            </g>
        </g>
    </g>
</svg>
