<svg xmlns="http://www.w3.org/2000/svg" width="191" height="33" viewBox="0 0 191 33">
    <g fill="none" fill-rule="evenodd">
        <g fill="#FFF">
            <g>
                <g>
                    <g>
                        <path d="M148.118 0h-4.064v4.075h-4.064v3.84h4.079v11.456c0 6.548 5.293 11.857 11.82 11.857h.297v-4.135h-.237c-2.074.003-4.064-.819-5.531-2.286-1.47-1.468-2.297-3.46-2.3-5.54V7.914h8.024V4.075h-8.024V0zM21.722 9.357c2.2-3.291 5.9-5.26 9.856-5.247 3.139-.015 6.154 1.221 8.38 3.436 2.23 2.217 3.489 5.23 3.5 8.376v15.207h-4.063V15.996c0-4.33-3.5-7.84-7.818-7.84-4.317 0-7.816 3.51-7.816 7.84v15.133h-4.063V15.966c0-4.33-3.5-7.84-7.817-7.84s-7.817 3.51-7.817 7.84V31.13H0V15.922c-.04-5.26 3.384-9.917 8.41-11.44 5.027-1.518 10.45.468 13.313 4.875h-.001zm54.775 8.678c0 7.695-6.218 13.933-13.89 13.933-7.67 0-13.89-6.238-13.89-13.933 0-7.692 6.22-13.931 13.89-13.931 7.672 0 13.89 6.237 13.89 13.932zM93.534 4.104c-6.527 0-11.82 5.308-11.82 11.857v15.162h4.064V15.96c.029-4.291 3.5-7.76 7.786-7.78h.236V4.103h-.266zm42.306 24.972c0 1.43-1.157 2.592-2.587 2.593-1.429-.001-2.587-1.162-2.586-2.593 0-1.433 1.158-2.594 2.586-2.594 1.429 0 2.587 1.161 2.587 2.594zm39.23-2.62l10.727-22.32h4.566L177.36 31.185h-4.58L159.777 4.076h4.492l.074.06 10.727 22.32zm-63.76-22.32c-6.824 0-12.638 4.976-13.714 11.735-1.075 6.761 2.905 13.303 9.391 15.435 6.489 2.13 13.56-.781 16.676-6.866l-3.546-1.97c-1.947 3.97-6.302 6.15-10.643 5.328-4.34-.823-7.598-4.447-7.96-8.856h23.642v-.86c.008-7.683-6.186-13.92-13.846-13.945v-.001zm.03 4.072c-4.295.003-8.092 2.793-9.383 6.894h18.766c-1.291-4.101-5.089-6.89-9.383-6.892v-.002z" transform="translate(-2156 -2067) translate(1955 1979) translate(86 88.5) translate(115)"/>
                    </g>
                </g>
            </g>
        </g>
    </g>
</svg>
